<svg width="489" height="365" viewBox="0 0 489 365" fill="none" xmlns="http://www.w3.org/2000/svg">
<path d="M489 320.197H0V320.442H489V320.197Z" fill="#E6E6E6"/>
<path d="M111.355 328.041H77.7119V328.285H111.355V328.041Z" fill="#E6E6E6"/>
<path d="M127.854 328.041H117.8V328.285H127.854V328.041Z" fill="#E6E6E6"/>
<path d="M177.458 323.239H158.524V323.483H177.458V323.239Z" fill="#E6E6E6"/>
<path d="M421.137 333.469H378.897V333.713H421.137V333.469Z" fill="#E6E6E6"/>
<path d="M436.041 333.469H429.851V333.713H436.041V333.469Z" fill="#E6E6E6"/>
<path d="M389.586 324.882H297.967V325.126H389.586V324.882Z" fill="#E6E6E6"/>
<path d="M231.786 276.578H42.944C41.4646 276.576 40.0467 275.986 39.0016 274.939C37.9564 273.892 37.3694 272.473 37.3694 270.994V5.53548C37.3823 4.06459 37.975 2.65818 39.0187 1.62174C40.0625 0.585292 41.4731 0.00251971 42.944 0H231.786C233.267 0 234.688 0.588353 235.735 1.63563C236.782 2.6829 237.37 4.10331 237.37 5.58438V270.994C237.37 272.475 236.782 273.895 235.735 274.943C234.688 275.99 233.267 276.578 231.786 276.578ZM42.944 0.195601C41.5295 0.198191 40.1738 0.761926 39.1745 1.76307C38.1751 2.76421 37.6139 4.12095 37.6139 5.53548V270.994C37.6139 272.409 38.1751 273.765 39.1745 274.766C40.1738 275.768 41.5295 276.331 42.944 276.334H231.786C233.201 276.331 234.558 275.768 235.559 274.767C236.56 273.766 237.123 272.409 237.126 270.994V5.53548C237.123 4.12005 236.56 2.76333 235.559 1.76247C234.558 0.761608 233.201 0.198186 231.786 0.195601H42.944Z" fill="#E6E6E6"/>
<path d="M443.337 276.578H254.485C253.005 276.576 251.586 275.987 250.539 274.94C249.493 273.893 248.904 272.474 248.901 270.994V5.53548C248.916 4.0637 249.511 2.6573 250.557 1.62113C251.602 0.58495 253.014 0.00249223 254.485 0H443.337C444.806 0.00509 446.214 0.589 447.256 1.62517C448.298 2.66134 448.889 4.06628 448.902 5.53548V270.994C448.902 272.472 448.316 273.889 447.273 274.936C446.23 275.983 444.815 276.573 443.337 276.578ZM254.485 0.195601C253.07 0.198186 251.713 0.761608 250.712 1.76247C249.712 2.76333 249.148 4.12005 249.146 5.53548V270.994C249.148 272.409 249.712 273.766 250.712 274.767C251.713 275.768 253.07 276.331 254.485 276.334H443.337C444.753 276.331 446.109 275.768 447.11 274.767C448.111 273.766 448.674 272.409 448.677 270.994V5.53548C448.674 4.12005 448.111 2.76333 447.11 1.76247C446.109 0.761608 444.753 0.198186 443.337 0.195601H254.485Z" fill="#E6E6E6"/>
<path d="M409.802 186.906H341.273V320.197H409.802V186.906Z" fill="#F5F5F5"/>
<path d="M409.802 186.906H404.149V320.197H409.802V186.906Z" fill="#F0F0F0"/>
<path d="M188.774 219.502L346.554 219.502V190.71L188.774 190.71V219.502Z" fill="#E0E0E0"/>
<path d="M254.564 320.295H186.915C186.656 320.295 186.407 320.192 186.224 320.009C186.04 319.825 185.937 319.576 185.937 319.317C185.937 319.058 186.04 318.809 186.224 318.625C186.407 318.442 186.656 318.339 186.915 318.339H254.564C264.344 318.339 265.644 315.483 265.644 304.158V161.37C265.644 161.111 265.747 160.862 265.931 160.678C266.114 160.495 266.363 160.392 266.622 160.392C266.882 160.392 267.131 160.495 267.314 160.678C267.497 160.862 267.6 161.111 267.6 161.37V304.158C267.6 316.266 265.723 320.295 254.564 320.295Z" fill="#E0E0E0"/>
<path d="M194.837 197.419L408.256 197.419V187.424L194.837 187.424V197.419Z" fill="#F0F0F0"/>
<path d="M196.382 186.906H127.854V320.197H196.382V186.906Z" fill="#F5F5F5"/>
<path d="M196.373 186.906H190.72V320.197H196.373V186.906Z" fill="#F0F0F0"/>
<path d="M147.854 320.197L147.854 82.8366H89.0469L89.0469 320.197H147.854Z" fill="#FAFAFA"/>
<path d="M144.627 142.123V89.7706H92.2743V142.123H144.627Z" fill="#F5F5F5"/>
<path d="M106.856 89.0665H130.074C130.074 90.506 129.502 91.8866 128.484 92.9046C127.466 93.9225 126.086 94.4944 124.646 94.4944H112.323C111.607 94.4995 110.897 94.3629 110.234 94.0925C109.571 93.822 108.968 93.423 108.46 92.9185C107.952 92.4139 107.548 91.8138 107.273 91.1527C106.998 90.4916 106.856 89.7826 106.856 89.0665Z" fill="#E0E0E0"/>
<path d="M144.617 199.17V146.817H92.2646V199.17H144.617Z" fill="#F5F5F5"/>
<path d="M144.627 256.216V203.864H92.2743V256.216H144.627Z" fill="#F5F5F5"/>
<path d="M144.627 313.273V260.921H92.2743V313.273H144.627Z" fill="#F5F5F5"/>
<path d="M106.856 146.123H130.074C130.071 147.562 129.499 148.941 128.481 149.958C127.464 150.976 126.085 151.548 124.646 151.551H112.323C111.608 151.555 110.898 151.417 110.236 151.146C109.573 150.875 108.971 150.476 108.463 149.972C107.955 149.468 107.552 148.868 107.276 148.208C107 147.547 106.858 146.839 106.856 146.123Z" fill="#E0E0E0"/>
<path d="M106.856 203.17H130.074C130.074 204.609 129.502 205.99 128.484 207.008C127.466 208.026 126.086 208.598 124.646 208.598H112.323C111.607 208.603 110.897 208.466 110.234 208.196C109.571 207.925 108.968 207.526 108.46 207.022C107.952 206.517 107.548 205.917 107.273 205.256C106.998 204.595 106.856 203.886 106.856 203.17Z" fill="#E0E0E0"/>
<path d="M106.856 260.216H130.074C130.074 261.656 129.502 263.037 128.484 264.055C127.466 265.073 126.086 265.644 124.646 265.644H112.323C111.607 265.65 110.897 265.513 110.234 265.243C109.571 264.972 108.968 264.573 108.46 264.069C107.952 263.564 107.548 262.964 107.273 262.303C106.998 261.642 106.856 260.933 106.856 260.216Z" fill="#E0E0E0"/>
<path d="M89.0469 320.197L89.0469 82.8366H59.6776L59.6776 320.197H89.0469Z" fill="#F0F0F0"/>
<path d="M258.573 186.906H243.796L247.385 158.133H262.172L258.573 186.906Z" fill="#F0F0F0"/>
<path d="M261.85 186.906H247.062L250.661 158.133H265.439L261.85 186.906Z" fill="#F5F5F5"/>
<path d="M293.557 186.906H282.867L280.823 183.649H291.503L293.557 186.906Z" fill="#F0F0F0"/>
<path d="M350.828 186.906H286.133L284.089 183.649H342.104L350.828 186.906Z" fill="#FAFAFA"/>
<path d="M211.698 178.651H216.373C218.562 178.651 220.661 179.521 222.209 181.069C223.757 182.617 224.627 184.716 224.627 186.906H203.424C203.424 185.82 203.638 184.745 204.054 183.742C204.47 182.74 205.08 181.829 205.849 181.062C206.617 180.295 207.529 179.688 208.533 179.274C209.537 178.86 210.612 178.649 211.698 178.651Z" fill="#F0F0F0"/>
<path d="M263.64 172.519H248.862L250.661 158.133H265.439L263.64 172.519Z" fill="#F0F0F0"/>
<path d="M209.292 169.077H313.938C314.144 169.077 314.348 169.033 314.535 168.949C314.723 168.864 314.891 168.74 315.027 168.586C315.163 168.431 315.264 168.249 315.325 168.052C315.385 167.855 315.402 167.648 315.376 167.443L307.317 102.974C307.274 102.623 307.104 102.3 306.839 102.065C306.574 101.831 306.233 101.702 305.879 101.702H201.263C201.058 101.702 200.855 101.746 200.668 101.83C200.481 101.914 200.314 102.037 200.178 102.19C200.042 102.344 199.94 102.524 199.88 102.72C199.819 102.916 199.8 103.122 199.825 103.326L207.884 167.805C207.926 168.151 208.092 168.47 208.351 168.704C208.609 168.937 208.944 169.07 209.292 169.077Z" fill="#F0F0F0"/>
<path d="M210.876 169.077H315.454C315.66 169.077 315.863 169.033 316.051 168.949C316.239 168.864 316.406 168.74 316.543 168.586C316.679 168.431 316.78 168.249 316.84 168.052C316.901 167.855 316.918 167.648 316.892 167.443L308.833 102.974C308.788 102.624 308.617 102.302 308.353 102.068C308.088 101.834 307.748 101.704 307.395 101.702H202.818C202.613 101.702 202.41 101.746 202.223 101.83C202.036 101.914 201.869 102.037 201.733 102.19C201.597 102.344 201.495 102.524 201.434 102.72C201.374 102.916 201.355 103.122 201.38 103.326L209.439 167.805C209.482 168.156 209.652 168.479 209.916 168.713C210.181 168.948 210.523 169.077 210.876 169.077Z" fill="#F5F5F5"/>
<path d="M313.517 165.507L305.977 105.164C305.963 105.066 305.913 104.976 305.838 104.911C305.762 104.846 305.666 104.811 305.566 104.812H205.155C205.098 104.81 205.04 104.821 204.987 104.843C204.934 104.866 204.887 104.9 204.849 104.943C204.81 104.986 204.782 105.037 204.766 105.092C204.749 105.147 204.745 105.205 204.754 105.262L212.294 165.615C212.306 165.712 212.354 165.802 212.428 165.867C212.502 165.932 212.597 165.967 212.695 165.967H313.116C313.174 165.966 313.231 165.953 313.283 165.928C313.335 165.904 313.381 165.869 313.419 165.826C313.457 165.783 313.485 165.732 313.502 165.677C313.519 165.622 313.524 165.564 313.517 165.507Z" fill="#E0E0E0"/>
<path d="M275.297 186.906H251.219V186.602C251.219 185.967 251.471 185.357 251.921 184.908C252.37 184.459 252.979 184.206 253.615 184.206H272.901C273.537 184.206 274.146 184.459 274.595 184.908C275.045 185.357 275.297 185.967 275.297 186.602V186.906Z" fill="#FAFAFA"/>
<path d="M254.026 186.906H237.693V186.602C237.693 185.967 237.946 185.357 238.395 184.908C238.844 184.459 239.454 184.206 240.089 184.206H251.63C252.265 184.206 252.875 184.459 253.324 184.908C253.773 185.357 254.026 185.967 254.026 186.602V186.906Z" fill="#F0F0F0"/>
<path d="M113.898 56.0296V55.9807C114.123 55.2277 114.338 54.4648 114.524 53.702C114.855 54.2293 115.305 54.6713 115.839 54.9924C116.372 55.3135 116.974 55.5046 117.595 55.5504H117.859C119.492 55.3939 121.057 53.8096 122.045 51.3157C122.064 51.2708 122.074 51.2226 122.074 51.1738C122.074 51.1251 122.064 51.0769 122.045 51.032C121.997 50.9427 121.916 50.8759 121.82 50.8462C120.647 50.5491 119.426 50.5026 118.234 50.7099C117.043 50.9172 115.908 51.3736 114.905 52.0492C115.052 51.3254 115.179 50.5919 115.287 49.8682C115.545 49.918 115.806 49.9441 116.069 49.9465C118.729 49.9465 120.685 47.5699 120.783 47.4525C120.817 47.4094 120.841 47.3589 120.853 47.3048C120.864 47.2508 120.862 47.1949 120.848 47.1416C120.834 47.0883 120.807 47.0391 120.77 46.998C120.734 46.9569 120.688 46.925 120.636 46.9049C120.018 46.5981 119.342 46.4255 118.653 46.3986C117.964 46.3716 117.276 46.4908 116.636 46.7484C115.953 47.0959 115.401 47.6551 115.062 48.3425C114.563 46.8121 113.652 45.449 112.429 44.4033C111.205 43.3575 109.717 42.6698 108.128 42.4159C108.078 42.4042 108.027 42.4043 107.978 42.4162C107.928 42.4281 107.883 42.4514 107.844 42.4843C107.803 42.5132 107.769 42.5511 107.746 42.5953C107.722 42.6394 107.709 42.6885 107.707 42.7386C107.57 45.1542 107.648 48.1176 109.458 49.5259C110.215 50.084 111.139 50.3669 112.079 50.3279C112.92 50.3076 113.756 50.1761 114.563 49.9367C114.305 51.6845 113.929 53.413 113.438 55.1103C111.668 52.6987 109.157 50.933 106.289 50.0834C106.198 50.0623 106.103 50.0769 106.023 50.1243C105.943 50.1716 105.884 50.2481 105.859 50.3377C105.311 52.4208 105.595 54.1127 106.67 55.2277C107.218 55.7191 107.858 56.0954 108.554 56.334C109.249 56.5726 109.986 56.6686 110.719 56.6164C111.508 56.6114 112.294 56.5295 113.067 56.3719C112.617 57.7998 112.089 59.1983 111.59 60.5284C110.504 59.5504 107.306 57.125 103.824 58.1421C103.731 58.1731 103.654 58.2399 103.609 58.3279C103.59 58.3728 103.58 58.421 103.58 58.4697C103.58 58.5185 103.59 58.5667 103.609 58.6115C104.587 60.9196 105.634 62.2008 106.983 62.6409C107.343 62.7595 107.72 62.8189 108.098 62.8169C109.132 62.773 110.139 62.4776 111.032 61.9563C110.289 63.7265 109.497 65.3793 108.744 66.8463C107.85 65.9348 106.727 65.2811 105.493 64.9541C104.259 64.6271 102.959 64.6388 101.732 64.9881C101.648 65.0047 101.573 65.052 101.523 65.1208C101.472 65.1896 101.449 65.2748 101.458 65.3597C101.544 66.0994 101.824 66.8032 102.268 67.4006C102.713 67.998 103.307 68.4679 103.991 68.7632C104.507 68.985 105.063 69.0982 105.624 69.0957C106.403 69.0859 107.168 68.888 107.854 68.5187C107.091 69.9368 106.387 71.1202 105.839 72.0199H99.1888C98.1325 70.2106 96.91 67.9612 95.7169 65.438C96.2726 65.6039 96.8485 65.6927 97.4284 65.702C98.1416 65.7109 98.8472 65.5554 99.4906 65.2476C100.134 64.9399 100.698 64.4881 101.139 63.9273C101.579 63.3664 101.885 62.7117 102.032 62.0137C102.179 61.3158 102.163 60.5934 101.986 59.9025C101.963 59.8223 101.912 59.7531 101.841 59.7081C101.771 59.6631 101.687 59.6453 101.604 59.658C100.246 59.7904 98.9401 60.248 97.7961 60.9919C96.6522 61.7358 95.7042 62.7442 95.0323 63.9319C94.2499 62.1715 93.487 60.3035 92.822 58.3768C93.6685 58.8585 94.6168 59.1332 95.5897 59.1788C95.9758 59.1832 96.3597 59.1203 96.7242 58.993C98.6802 58.3475 99.8049 55.9905 100.763 53.5455C100.785 53.5013 100.796 53.4528 100.796 53.4037C100.796 53.3545 100.785 53.306 100.763 53.2619C100.741 53.217 100.709 53.1773 100.67 53.1453C100.632 53.1133 100.587 53.0897 100.538 53.076C96.6264 51.9807 93.4088 55.746 92.4112 57.0956C91.8896 55.4672 91.4554 53.812 91.1105 52.1372C91.9323 52.298 92.767 52.3831 93.6044 52.3915C94.4365 52.4523 95.2722 52.3413 96.0596 52.0654C96.847 51.7894 97.5693 51.3545 98.1814 50.7875C99.3648 49.5357 99.6484 47.6579 99.0127 45.3694C99.0014 45.3245 98.9812 45.2824 98.9532 45.2456C98.9252 45.2088 98.89 45.178 98.8498 45.1552C98.8096 45.1323 98.7652 45.1179 98.7192 45.1127C98.6732 45.1075 98.6267 45.1116 98.5824 45.1249C95.4614 46.0988 92.7446 48.0669 90.8464 50.7289L90.6997 49.8389C90.6894 49.7619 90.6552 49.69 90.6019 49.6335C90.4406 49.0548 90.1597 48.5165 89.7773 48.0532C89.3948 47.5899 88.9195 47.212 88.3819 46.944C87.6763 46.6718 86.9212 46.552 86.166 46.5924C85.4109 46.6329 84.6728 46.8327 84.0004 47.1787C83.9487 47.2011 83.9026 47.2346 83.8654 47.2768C83.8282 47.3191 83.8008 47.3691 83.7853 47.4232C83.7732 47.4763 83.7741 47.5315 83.7877 47.5843C83.8013 47.637 83.8273 47.6857 83.8635 47.7264C83.9613 47.8535 86.1129 50.3963 89.0078 50.3963C89.3198 50.3923 89.6308 50.3596 89.9369 50.2985C90.064 51.1298 90.2205 51.9611 90.3965 52.7827C89.2812 52.0484 88.0229 51.559 86.7047 51.3466C85.3864 51.1342 84.0381 51.2036 82.7486 51.5504C82.6519 51.5801 82.571 51.6469 82.5236 51.7362C82.5043 51.7827 82.4943 51.8325 82.4943 51.8829C82.4943 51.9333 82.5043 51.9831 82.5236 52.0296C83.6483 54.7484 85.3892 56.4697 87.1887 56.6164H87.4332C88.3427 56.6164 89.575 56.1959 90.8269 54.5235C91.3198 56.4251 91.914 58.299 92.6068 60.1372C90.9149 59.3353 87.1105 57.9563 84.3916 60.059C84.3542 60.086 84.3227 60.1203 84.2989 60.1598C84.2752 60.1993 84.2596 60.2432 84.2532 60.2889C84.2468 60.3346 84.2497 60.381 84.2617 60.4256C84.2738 60.4701 84.2946 60.5117 84.3232 60.548C86.0836 62.9441 87.707 64.1079 89.3012 64.1079C90.6215 64.1079 91.8831 63.2766 93.1447 61.6335C93.8684 63.4331 94.6508 65.1544 95.4235 66.7387C93.7315 65.6922 91.8733 65.8585 89.6826 67.2375C89.6319 67.2679 89.59 67.3109 89.5608 67.3623C89.5317 67.4137 89.5164 67.4718 89.5163 67.5309C89.5123 67.5884 89.5238 67.646 89.5496 67.6976C89.5754 67.7492 89.6146 67.793 89.663 67.8243C90.9678 68.7648 92.5086 69.3235 94.1129 69.438C94.9406 69.4544 95.7521 69.2079 96.4308 68.7338C97.0567 69.9368 97.6729 71.0419 98.2401 72.0297H95.2181V73.751H96.3134L97.223 82.8659H110.612L111.512 73.751H112.617V72.0297H106.602C107.267 70.9245 108.118 69.4478 109.027 67.7167C109.055 67.6819 109.075 67.642 109.086 67.5994C109.321 67.1593 109.546 66.7094 109.78 66.2399C110.178 66.8417 110.714 67.3395 111.344 67.6918C111.973 68.044 112.678 68.2403 113.399 68.2644C113.549 68.2741 113.699 68.2741 113.849 68.2644C114.646 68.1741 115.402 67.865 116.034 67.3713C116.665 66.8776 117.148 66.2186 117.428 65.4673C117.457 65.3901 117.457 65.3051 117.429 65.2278C117.4 65.1506 117.344 65.0863 117.272 65.0468C116.247 64.4675 115.098 64.1406 113.921 64.0929C112.744 64.0453 111.573 64.2784 110.504 64.7729C111.013 63.7069 111.482 62.5627 111.991 61.3793C112.029 61.3354 112.053 61.2807 112.059 61.2228C112.196 60.8903 112.323 60.5578 112.46 60.2448C113.624 61.7118 114.778 62.4355 115.981 62.4355C117.438 62.4355 118.915 61.3597 120.499 59.1397C120.554 59.0655 120.578 58.9726 120.565 58.8811C120.552 58.7897 120.504 58.7069 120.431 58.6507C117.937 56.7827 114.563 58.0638 112.979 58.8071C113.301 57.9269 113.595 57.037 113.869 56.1274L113.898 56.0296Z" fill="#E0E0E0"/>
<path d="M393.616 51.9025H343.601V106.817H393.616V51.9025Z" fill="#E0E0E0"/>
<path d="M387.444 54.1519C387.403 54.1618 387.359 54.1618 387.317 54.1519C387.2 54.0736 375.386 47.0516 371.669 47.0516C367.953 47.0516 356.657 54.0736 356.54 54.1421C356.513 54.1597 356.483 54.1717 356.451 54.1773C356.42 54.1829 356.388 54.1821 356.357 54.1747C356.325 54.1674 356.296 54.1538 356.27 54.1347C356.245 54.1157 356.223 54.0915 356.207 54.0638C356.174 54.0092 356.164 53.9438 356.179 53.8817C356.193 53.8195 356.232 53.7656 356.285 53.7313C356.755 53.4379 367.777 46.5626 371.669 46.5626C375.562 46.5626 387.122 53.4086 387.611 53.7313C387.638 53.7474 387.663 53.7689 387.682 53.7946C387.701 53.8202 387.714 53.8496 387.722 53.8807C387.729 53.9118 387.73 53.9442 387.724 53.9756C387.719 54.0071 387.707 54.0372 387.689 54.0638C387.661 54.101 387.624 54.1291 387.58 54.1448C387.537 54.1604 387.489 54.1629 387.444 54.1519Z" fill="#EBEBEB"/>
<path d="M399.024 51.9025H347.366V106.817H399.024V51.9025Z" fill="#F5F5F5"/>
<path d="M394.701 102.485V56.2252H351.699V102.485H394.701Z" fill="white"/>
<path d="M381.529 87.6887C386.131 83.0864 386.131 75.6246 381.529 71.0223C376.926 66.4201 369.465 66.4201 364.862 71.0224C360.26 75.6246 360.26 83.0864 364.862 87.6887C369.465 92.291 376.926 92.291 381.529 87.6887Z" fill="#E0E0E0"/>
<path d="M372.197 253.546H416.031C420.053 253.55 423.916 251.975 426.789 249.16C429.662 246.346 431.316 242.516 431.396 238.495L433.039 158.24C433.069 156.751 432.801 155.271 432.252 153.886C431.703 152.501 430.882 151.24 429.84 150.176C428.797 149.113 427.552 148.268 426.179 147.691C424.805 147.114 423.33 146.817 421.841 146.817H394.359C391.61 146.817 388.956 147.828 386.905 149.659C384.854 151.49 383.549 154.012 383.239 156.744L372.197 253.546Z" fill="#E6E6E6"/>
<path d="M396.119 253.546H349.41C348.829 253.546 348.272 253.316 347.861 252.905C347.45 252.494 347.219 251.937 347.219 251.356V251.15C347.219 249.558 347.852 248.03 348.978 246.904C350.104 245.778 351.632 245.145 353.224 245.145H396.119V253.546Z" fill="#E6E6E6"/>
<path d="M392.432 321.293C392.205 321.298 391.983 321.223 391.804 321.082C391.626 320.941 391.502 320.742 391.454 320.52L377.762 254.524H353.899L340.207 320.52C340.154 320.779 340 321.007 339.779 321.153C339.558 321.299 339.288 321.351 339.029 321.297C338.769 321.244 338.542 321.09 338.396 320.869C338.25 320.648 338.198 320.378 338.251 320.119L352.119 253.351C352.165 253.127 352.288 252.926 352.466 252.783C352.645 252.64 352.868 252.564 353.097 252.568H378.525C378.754 252.564 378.977 252.64 379.156 252.783C379.334 252.926 379.457 253.127 379.503 253.351L393.361 320.119C393.414 320.372 393.364 320.635 393.223 320.851C393.082 321.067 392.861 321.219 392.608 321.273C392.551 321.287 392.492 321.293 392.432 321.293Z" fill="#E6E6E6"/>
<path d="M377.557 321.293C377.492 321.302 377.426 321.302 377.361 321.293C377.235 321.267 377.116 321.217 377.009 321.145C376.903 321.073 376.812 320.981 376.741 320.874C376.67 320.766 376.621 320.646 376.597 320.52C376.572 320.394 376.573 320.264 376.599 320.139L390.467 253.37C390.512 253.146 390.635 252.945 390.814 252.802C390.993 252.659 391.216 252.583 391.445 252.588H416.873C417.101 252.583 417.325 252.659 417.503 252.802C417.682 252.945 417.805 253.146 417.851 253.37L431.709 320.139C431.735 320.267 431.736 320.399 431.711 320.528C431.686 320.657 431.636 320.779 431.564 320.889C431.492 320.998 431.399 321.092 431.29 321.166C431.182 321.239 431.06 321.291 430.931 321.317C430.803 321.343 430.67 321.344 430.542 321.319C430.413 321.294 430.29 321.245 430.181 321.172C430.072 321.1 429.977 321.007 429.904 320.898C429.831 320.79 429.779 320.668 429.753 320.539L416.061 254.544H392.178L378.486 320.539C378.436 320.75 378.318 320.938 378.15 321.075C377.982 321.211 377.773 321.288 377.557 321.293Z" fill="#E6E6E6"/>
<path d="M244.5 364.364C349.227 364.364 434.124 359.407 434.124 353.293C434.124 347.178 349.227 342.222 244.5 342.222C139.773 342.222 54.8756 347.178 54.8756 353.293C54.8756 359.407 139.773 364.364 244.5 364.364Z" fill="#F5F5F5"/>
<path d="M261.234 344.256C260.927 344.255 260.63 344.149 260.393 343.955C260.156 343.76 259.994 343.49 259.933 343.19L241.351 251.688H208.989L190.407 343.19C190.318 343.516 190.109 343.796 189.821 343.973C189.534 344.151 189.19 344.212 188.859 344.145C188.528 344.078 188.234 343.887 188.039 343.612C187.843 343.336 187.76 342.997 187.805 342.662L206.602 250.094C206.665 249.795 206.828 249.526 207.065 249.332C207.301 249.138 207.597 249.031 207.903 249.028H242.427C242.733 249.029 243.03 249.135 243.267 249.329C243.504 249.524 243.666 249.794 243.727 250.094L262.534 342.662C262.604 343.007 262.533 343.365 262.339 343.658C262.145 343.952 261.842 344.156 261.498 344.227L261.234 344.256Z" fill="#407BFF"/>
<path d="M209.292 344.256C208.986 344.254 208.69 344.146 208.454 343.953C208.217 343.759 208.054 343.49 207.991 343.19L189.409 251.688H157.047L138.465 343.19C138.441 343.37 138.379 343.544 138.285 343.699C138.191 343.855 138.066 343.99 137.918 344.095C137.769 344.2 137.601 344.274 137.423 344.312C137.245 344.35 137.061 344.35 136.883 344.314C136.704 344.278 136.535 344.205 136.386 344.101C136.237 343.997 136.111 343.864 136.015 343.709C135.92 343.554 135.857 343.381 135.831 343.201C135.805 343.021 135.816 342.837 135.864 342.662L154.671 250.094C154.732 249.794 154.894 249.524 155.131 249.329C155.368 249.135 155.665 249.029 155.971 249.028H190.495C190.8 249.029 191.096 249.136 191.331 249.33C191.566 249.525 191.727 249.795 191.786 250.094L210.593 342.662C210.662 343.007 210.592 343.365 210.398 343.658C210.203 343.952 209.901 344.156 209.556 344.227L209.292 344.256Z" fill="#407BFF"/>
<path d="M216.559 250.368H157.096C151.638 250.369 146.397 248.23 142.499 244.41C138.601 240.59 136.355 235.394 136.245 229.938L134.035 139.57C133.993 137.55 134.355 135.543 135.099 133.664C135.843 131.786 136.954 130.075 138.368 128.631C139.781 127.188 141.469 126.041 143.331 125.257C145.193 124.474 147.193 124.07 149.213 124.069H186.495C190.226 124.071 193.826 125.446 196.609 127.932C199.391 130.417 201.163 133.839 201.585 137.546L216.559 250.368Z" fill="#407BFF"/>
<path d="M184.128 238.925H242.319C244.48 238.925 246.552 239.784 248.08 241.312C249.608 242.839 250.466 244.911 250.466 247.072V247.356C250.466 248.134 250.157 248.88 249.606 249.43C249.056 249.981 248.31 250.29 247.532 250.29H184.128V238.925Z" fill="#407BFF"/>
<g opacity="0.3">
<path d="M261.234 344.256C260.927 344.255 260.63 344.149 260.393 343.955C260.156 343.76 259.994 343.49 259.933 343.19L241.351 251.688H208.989L190.407 343.19C190.318 343.516 190.109 343.796 189.821 343.973C189.534 344.151 189.19 344.212 188.859 344.145C188.528 344.078 188.234 343.887 188.039 343.612C187.843 343.336 187.76 342.997 187.805 342.662L206.602 250.094C206.665 249.795 206.828 249.526 207.065 249.332C207.301 249.138 207.597 249.031 207.903 249.028H242.427C242.733 249.029 243.03 249.135 243.267 249.329C243.504 249.524 243.666 249.794 243.727 250.094L262.534 342.662C262.604 343.007 262.533 343.365 262.339 343.658C262.145 343.952 261.842 344.156 261.498 344.227L261.234 344.256Z" fill="black"/>
<path d="M209.292 344.256C208.986 344.254 208.69 344.146 208.454 343.952C208.217 343.759 208.054 343.489 207.991 343.19L189.409 251.688H157.047L138.465 343.19C138.441 343.37 138.379 343.544 138.285 343.699C138.191 343.855 138.066 343.99 137.918 344.095C137.769 344.2 137.601 344.274 137.423 344.312C137.245 344.35 137.061 344.35 136.883 344.314C136.704 344.278 136.535 344.205 136.386 344.101C136.237 343.997 136.111 343.864 136.015 343.709C135.92 343.554 135.857 343.381 135.831 343.201C135.805 343.021 135.816 342.837 135.864 342.662L154.671 250.094C154.732 249.794 154.894 249.524 155.131 249.329C155.368 249.135 155.665 249.029 155.971 249.028H190.495C190.8 249.029 191.096 249.136 191.331 249.33C191.566 249.525 191.727 249.795 191.786 250.094L210.593 342.662C210.662 343.007 210.592 343.365 210.398 343.658C210.203 343.952 209.901 344.156 209.556 344.227L209.292 344.256Z" fill="black"/>
<path d="M216.559 250.368H157.096C151.638 250.369 146.397 248.23 142.499 244.41C138.601 240.59 136.355 235.394 136.245 229.938L134.035 139.57C133.993 137.55 134.355 135.543 135.099 133.664C135.843 131.786 136.954 130.075 138.368 128.631C139.781 127.188 141.469 126.041 143.331 125.257C145.193 124.474 147.193 124.07 149.213 124.069H186.495C190.226 124.071 193.826 125.446 196.609 127.932C199.391 130.417 201.163 133.839 201.585 137.546L216.559 250.368Z" fill="black"/>
<path d="M184.128 238.925H242.319C244.48 238.925 246.552 239.784 248.08 241.312C249.608 242.839 250.466 244.912 250.466 247.072V247.356C250.466 248.134 250.157 248.88 249.606 249.43C249.056 249.981 248.31 250.29 247.532 250.29H184.128V238.925Z" fill="black"/>
</g>
<path d="M200.011 119.081C200.011 119.081 208.324 129.937 202.945 151.551C197.566 173.165 169.81 161.429 168.128 141.947C166.172 118.983 191.952 134.817 196.49 114.397L200.011 119.081Z" fill="#263238"/>
<path d="M193.976 112.636C190.368 115.179 188.94 118.876 192.93 122.494C196.92 126.113 202.612 125.996 204.333 124.509C206.055 123.023 205.712 115.472 205.712 115.472L193.976 112.636Z" fill="#407BFF"/>
<path opacity="0.8" d="M193.976 112.636C190.368 115.179 188.94 118.876 192.93 122.494C196.92 126.113 202.612 125.996 204.333 124.509C206.055 123.023 205.712 115.472 205.712 115.472L193.976 112.636Z" fill="white"/>
<path d="M239.551 160.744C239.649 161.184 239.815 161.869 239.972 162.446L240.441 164.284C240.774 165.517 241.136 166.749 241.517 167.981C242.241 170.465 243.043 172.94 243.884 175.414C244.725 177.888 245.586 180.304 246.524 182.808C246.984 184.03 247.444 185.263 247.933 186.485L248.5 187.952C248.613 188.203 248.762 188.437 248.94 188.646C250.332 190.054 252.028 191.125 253.899 191.776C256.183 192.695 258.538 193.428 260.94 193.967C263.424 194.544 265.977 195.023 268.559 195.424C271.141 195.825 273.791 196.148 276.334 196.402L276.422 201.664C270.843 202.241 265.219 202.241 259.639 201.664C256.723 201.363 253.84 200.803 251.023 199.991C249.498 199.531 248.013 198.945 246.583 198.241C244.937 197.441 243.431 196.381 242.123 195.101C241.364 194.345 240.707 193.494 240.167 192.568C240.021 192.333 239.894 192.069 239.757 191.825L239.502 191.297L239.053 190.319C238.446 189.077 237.84 187.835 237.282 186.573C236.148 184.05 235.043 181.507 234.055 178.915C233.067 176.324 232.099 173.712 231.277 171.091C230.876 169.742 230.485 168.402 230.123 167.023L229.585 164.959C229.429 164.216 229.282 163.6 229.126 162.72L239.551 160.744Z" fill="#E58A7B"/>
<path d="M236.226 149.634C240.422 150.7 243.346 167.952 243.346 167.952L231.796 175.776C231.796 175.776 220.715 158.368 223.972 153.761C227.307 149.028 230.104 148.108 236.226 149.634Z" fill="#407BFF"/>
<path opacity="0.5" d="M236.226 149.634C240.422 150.7 243.346 167.952 243.346 167.952L231.796 175.776C231.796 175.776 220.715 158.368 223.972 153.761C227.307 149.028 230.104 148.108 236.226 149.634Z" fill="white"/>
<path opacity="0.2" d="M234.72 153.976L224.676 161.937C226.632 166.773 229.011 171.427 231.786 175.844L239.796 170.397L234.72 153.976Z" fill="#407BFF"/>
<path d="M236.226 149.634C236.226 149.634 241.116 151.336 231.336 211.023H190.045C190.739 194.211 190.759 183.844 182.729 149.331C188.511 148.14 194.372 147.369 200.265 147.023C206.513 146.577 212.785 146.577 219.033 147.023C227.092 147.795 236.226 149.634 236.226 149.634Z" fill="#407BFF"/>
<path opacity="0.5" d="M236.226 149.634C236.226 149.634 241.116 151.336 231.336 211.023H190.045C190.739 194.211 190.759 183.844 182.729 149.331C188.511 148.14 194.372 147.369 200.265 147.023C206.513 146.577 212.785 146.577 219.033 147.023C227.092 147.795 236.226 149.634 236.226 149.634Z" fill="white"/>
<path d="M274.818 196.353L282.026 189.038L283.004 199.346C283.004 199.346 277.595 203.003 273.859 201.038L274.818 196.353Z" fill="#E58A7B"/>
<path d="M290.535 187.952L290.857 196.617L282.994 199.346L282.045 189.038L290.535 187.952Z" fill="#E58A7B"/>
<path d="M278.202 334.769H288.373L289.938 311.209H279.767L278.202 334.769Z" fill="#E58A7B"/>
<path d="M238.837 334.769H249.009L252.275 311.209H242.104L238.837 334.769Z" fill="#E58A7B"/>
<path d="M249.644 333.586H238.211C238.015 333.582 237.823 333.65 237.673 333.778C237.523 333.906 237.426 334.085 237.4 334.28L236.099 343.327C236.076 343.555 236.101 343.786 236.172 344.004C236.244 344.223 236.36 344.424 236.514 344.594C236.668 344.765 236.856 344.901 237.066 344.994C237.276 345.088 237.503 345.136 237.732 345.136C241.713 345.068 243.6 344.833 248.657 344.833C251.747 344.833 259.679 345.156 263.952 345.156C268.226 345.156 268.451 340.931 266.671 340.549C258.701 338.828 254.026 336.471 251.336 334.212C250.865 333.809 250.265 333.587 249.644 333.586Z" fill="#263238"/>
<path d="M289.165 333.586H277.752C277.556 333.584 277.365 333.653 277.216 333.781C277.067 333.909 276.969 334.086 276.94 334.28L275.64 343.327C275.616 343.555 275.641 343.786 275.713 344.004C275.784 344.223 275.901 344.424 276.055 344.594C276.208 344.765 276.396 344.901 276.606 344.994C276.816 345.088 277.043 345.136 277.273 345.136C281.253 345.068 283.141 344.833 288.197 344.833C291.297 344.833 297.684 345.156 301.958 345.156C306.231 345.156 306.456 340.931 304.676 340.549C296.706 338.828 293.566 336.471 290.887 334.212C290.405 333.805 289.795 333.583 289.165 333.586Z" fill="#263238"/>
<path d="M228.118 105.35C231.776 105.585 233.634 123.932 222.906 122.866C212.177 121.8 228.118 105.35 228.118 105.35Z" fill="#263238"/>
<path d="M289.938 311.209L289.126 323.356H278.955L279.757 311.209H289.938Z" fill="#CF6F64"/>
<path d="M242.104 311.209H252.285L250.593 323.356H240.412L242.104 311.209Z" fill="#CF6F64"/>
<path opacity="0.2" d="M186.857 168.519C187.835 173.527 188.529 177.849 189.057 181.742L191.473 163.052L186.857 168.519Z" fill="#407BFF"/>
<path d="M202.123 125.937C203.307 131.971 204.49 143.033 200.265 147.062C200.265 147.062 201.918 153.184 213.136 153.184C225.468 153.184 219.004 147.062 219.004 147.062C212.265 145.458 212.441 140.46 213.615 135.776L202.123 125.937Z" fill="#E58A7B"/>
<path d="M210.906 154.495L214.661 153.145L214.162 152.118L210.906 154.495Z" fill="#263238"/>
<path d="M218.192 153.712L214.661 153.145L215.424 152.001L218.192 153.712Z" fill="#263238"/>
<path d="M201.634 144.216L199.082 146.7C199.005 146.779 198.962 146.884 198.962 146.993C198.962 147.103 199.005 147.208 199.082 147.287L209.84 159.541C210.351 156.631 211.91 154.008 214.221 152.167C205.321 148.803 203.003 145.321 202.211 144.343C202.193 144.286 202.16 144.235 202.116 144.195C202.071 144.155 202.018 144.127 201.959 144.114C201.901 144.101 201.84 144.104 201.783 144.122C201.726 144.14 201.675 144.172 201.634 144.216Z" fill="#407BFF"/>
<path d="M217.008 146.094L220.177 146.954C220.272 146.981 220.358 147.032 220.427 147.102C220.495 147.172 220.544 147.26 220.568 147.355C221.463 151.375 221.295 155.558 220.079 159.492C219.629 157.83 218.123 153.849 215.424 152.001C218.358 149.976 217.175 147.365 216.754 146.377C216.74 146.34 216.737 146.301 216.744 146.262C216.752 146.224 216.769 146.188 216.796 146.159C216.822 146.129 216.855 146.108 216.893 146.096C216.93 146.085 216.97 146.084 217.008 146.094Z" fill="#407BFF"/>
<path d="M206.827 129.947L213.673 135.766C213.389 136.856 213.196 137.969 213.096 139.091C210.524 138.72 206.994 135.903 206.72 133.223C206.552 132.134 206.589 131.023 206.827 129.947Z" fill="#CF6F64"/>
<path d="M201.468 110.035C200.304 120.059 199.59 124.284 203.698 130.27C209.859 139.277 222.436 138.514 226.573 129.037C230.299 120.509 231.571 105.565 222.573 99.8538C220.594 98.5904 218.325 97.8542 215.981 97.7149C213.637 97.5757 211.296 98.0382 209.181 99.0583C207.066 100.079 205.247 101.623 203.897 103.544C202.547 105.465 201.711 107.699 201.468 110.035Z" fill="#E58A7B"/>
<path d="M224.392 93.4772C207.815 86.9344 195.365 94.3183 192.793 104.812C188.754 121.106 201.654 122.25 201.654 122.25L203.268 118.084C205.585 119.482 212.07 118.866 210.114 106.768C208.96 99.9223 217.625 109.458 228.617 108.392C231.542 108.108 235.542 97.8782 224.392 93.4772Z" fill="#263238"/>
<path d="M230.035 97.5066C227.854 94.1521 223.395 91.2767 214.153 89.9173C214.153 89.9173 218.955 91.0029 220.51 94.5139C222.065 98.0249 232.666 101.546 230.035 97.5066Z" fill="#263238"/>
<path d="M198.28 118.71C198.212 119.674 198.335 120.642 198.642 121.558C198.949 122.474 199.434 123.321 200.069 124.05C201.781 126.006 204.03 124.803 204.734 122.455C205.36 120.333 205.233 116.773 202.945 115.697C200.656 114.622 198.465 116.323 198.28 118.71Z" fill="#E58A7B"/>
<path d="M231.365 211.062C231.365 211.062 299.571 217.409 298.906 248.422C298.212 280.696 291.307 321.009 291.307 321.009H277.214C277.214 321.009 276.011 286.896 275.6 255.121C275.395 238.573 209.488 235.258 209.488 235.258L200.979 211.062H231.365Z" fill="#263238"/>
<path d="M220.451 211.062C220.451 211.062 264.529 225.683 265.644 243.776C267.688 277.087 253.048 321.038 253.048 321.038H239.17C239.17 321.038 239.962 291.894 241.615 261.713C243.708 223.786 176.793 261.185 190.045 211.092L220.451 211.062Z" fill="#263238"/>
<path d="M215.972 115.502C215.825 116.304 216.138 117.037 216.666 117.135C217.194 117.233 217.732 116.646 217.879 115.844C218.026 115.042 217.713 114.299 217.184 114.211C216.656 114.123 216.138 114.69 215.972 115.502Z" fill="#263238"/>
<path d="M225.096 117.135C224.95 117.937 225.263 118.671 225.791 118.768C226.319 118.866 226.867 118.279 227.013 117.477C227.16 116.675 226.847 115.932 226.319 115.844C225.791 115.756 225.243 116.323 225.096 117.135Z" fill="#263238"/>
<path d="M226.074 115.844L228.118 115.629C228.118 115.629 226.896 116.969 226.074 115.844Z" fill="#263238"/>
<path d="M222.436 118.084C222.828 120.055 223.486 121.963 224.392 123.756C223.932 123.966 223.431 124.074 222.925 124.074C222.419 124.074 221.919 123.966 221.458 123.756L222.436 118.084Z" fill="#DF5753"/>
<path d="M218.094 126.367C217.021 126.197 216.003 125.776 215.123 125.139C214.242 124.502 213.525 123.666 213.028 122.7C213.011 122.662 213.01 122.62 213.025 122.581C213.04 122.543 213.069 122.512 213.106 122.494C213.145 122.481 213.188 122.483 213.226 122.499C213.264 122.515 213.294 122.545 213.312 122.583C213.782 123.496 214.459 124.286 215.29 124.891C216.12 125.495 217.08 125.897 218.094 126.064C218.135 126.074 218.17 126.098 218.194 126.132C218.217 126.167 218.227 126.209 218.221 126.25C218.214 126.28 218.198 126.307 218.175 126.328C218.153 126.349 218.124 126.362 218.094 126.367Z" fill="#263238"/>
<path d="M213.83 111.893C213.787 111.895 213.745 111.887 213.706 111.87C213.667 111.853 213.633 111.827 213.605 111.795C213.575 111.768 213.552 111.734 213.536 111.697C213.519 111.66 213.511 111.62 213.511 111.58C213.511 111.54 213.519 111.5 213.536 111.463C213.552 111.426 213.575 111.392 213.605 111.365C214.132 110.85 214.775 110.469 215.479 110.255C216.184 110.041 216.93 109.999 217.654 110.133C217.73 110.155 217.795 110.207 217.835 110.276C217.875 110.345 217.887 110.427 217.869 110.504C217.86 110.544 217.843 110.581 217.819 110.614C217.795 110.646 217.765 110.674 217.731 110.695C217.696 110.716 217.658 110.73 217.617 110.736C217.577 110.742 217.537 110.739 217.497 110.729C216.873 110.619 216.23 110.66 215.625 110.849C215.019 111.037 214.467 111.369 214.016 111.815C213.963 111.859 213.898 111.887 213.83 111.893Z" fill="#263238"/>
<path d="M230.084 113.497C230.024 113.499 229.964 113.482 229.913 113.449C229.862 113.416 229.823 113.368 229.801 113.311C229.562 112.724 229.187 112.202 228.708 111.787C228.229 111.372 227.658 111.077 227.043 110.925C226.963 110.91 226.892 110.866 226.845 110.8C226.797 110.734 226.777 110.653 226.788 110.573C226.803 110.491 226.849 110.418 226.917 110.371C226.985 110.323 227.069 110.304 227.15 110.318C227.867 110.484 228.532 110.821 229.091 111.299C229.649 111.778 230.084 112.384 230.358 113.067C230.391 113.142 230.393 113.227 230.364 113.304C230.335 113.381 230.276 113.443 230.202 113.477L230.084 113.497Z" fill="#263238"/>
<path d="M188.901 164.089C188.011 167.023 187.052 169.957 186.201 172.969C185.351 175.981 184.451 178.915 183.678 181.898C182.906 184.881 182.172 187.835 181.624 190.7C181.36 192.148 181.116 193.585 180.979 194.935C180.901 195.61 180.861 196.246 180.852 196.832C180.852 196.969 180.852 196.832 180.754 196.607C180.634 196.342 180.469 196.101 180.265 195.893C179.766 195.463 179.58 195.541 179.805 195.61C180.215 195.709 180.636 195.752 181.057 195.737C182.374 195.692 183.683 195.525 184.969 195.238C187.882 194.596 190.753 193.777 193.566 192.783C199.346 190.827 205.214 188.441 210.925 186.006L213.448 190.612C208.03 194.165 202.366 197.328 196.5 200.079C193.462 201.512 190.328 202.731 187.121 203.727C185.335 204.271 183.501 204.641 181.644 204.832C180.484 204.951 179.314 204.922 178.162 204.744C177.398 204.63 176.651 204.416 175.942 204.109C175.025 203.712 174.195 203.141 173.497 202.426C172.141 200.997 171.364 199.115 171.316 197.145C171.267 196.167 171.258 195.189 171.316 194.309C171.385 192.5 171.551 190.788 171.776 189.116C172.245 185.771 172.852 182.544 173.595 179.336C174.338 176.128 175.13 173.028 176.001 169.918C176.871 166.808 177.81 163.756 178.935 160.646L188.901 164.089Z" fill="#E58A7B"/>
<path d="M253.126 335.298C252.225 335.275 251.329 335.151 250.456 334.926C250.423 334.92 250.393 334.904 250.37 334.88C250.346 334.857 250.33 334.827 250.324 334.794C250.318 334.762 250.321 334.728 250.334 334.697C250.347 334.667 250.369 334.641 250.397 334.623C250.74 334.398 253.791 332.422 254.955 332.941C255.077 332.996 255.181 333.083 255.257 333.193C255.333 333.304 255.377 333.433 255.385 333.566C255.434 333.783 255.425 334.009 255.36 334.222C255.295 334.435 255.175 334.627 255.014 334.779C254.465 335.169 253.797 335.353 253.126 335.298ZM250.925 334.691C252.813 335.082 254.231 335.033 254.779 334.525C254.898 334.409 254.986 334.265 255.034 334.106C255.081 333.946 255.088 333.778 255.053 333.615C255.049 333.538 255.024 333.464 254.981 333.4C254.938 333.336 254.878 333.286 254.808 333.254C254.065 332.921 252.001 334.026 250.925 334.691Z" fill="#407BFF"/>
<path d="M250.495 334.936H250.407C250.38 334.92 250.357 334.897 250.342 334.87C250.326 334.842 250.318 334.811 250.319 334.779C250.319 334.662 250.319 331.767 251.414 330.809C251.543 330.685 251.698 330.594 251.868 330.541C252.037 330.489 252.217 330.476 252.392 330.505C252.569 330.504 252.74 330.563 252.877 330.674C253.015 330.785 253.109 330.939 253.146 331.112C253.351 332.168 251.649 334.329 250.583 334.936H250.495ZM252.216 330.809C252.001 330.81 251.795 330.894 251.639 331.043C250.867 331.728 250.71 333.664 250.661 334.437C251.639 333.733 252.95 331.953 252.784 331.161C252.784 331.033 252.686 330.867 252.334 330.818L252.216 330.809Z" fill="#407BFF"/>
<path d="M292.989 335.298C291.914 335.274 290.844 335.153 289.791 334.936C289.757 334.927 289.725 334.908 289.701 334.882C289.677 334.856 289.661 334.824 289.654 334.789C289.649 334.753 289.656 334.716 289.673 334.684C289.691 334.653 289.719 334.628 289.752 334.613C290.202 334.378 294.221 332.324 295.444 332.989C295.55 333.048 295.64 333.133 295.705 333.235C295.77 333.338 295.808 333.455 295.816 333.576C295.843 333.78 295.82 333.987 295.749 334.18C295.677 334.373 295.559 334.545 295.405 334.681C294.694 335.157 293.841 335.374 292.989 335.298ZM290.358 334.691C291.669 334.916 294.27 335.239 295.17 334.437C295.282 334.332 295.368 334.202 295.421 334.057C295.474 333.913 295.492 333.758 295.473 333.606C295.473 333.539 295.454 333.474 295.42 333.418C295.385 333.361 295.336 333.314 295.278 333.283C294.476 332.853 291.776 333.997 290.358 334.691Z" fill="#407BFF"/>
<path d="M289.83 334.936C289.798 334.945 289.764 334.945 289.732 334.936C289.709 334.917 289.689 334.893 289.676 334.866C289.662 334.839 289.655 334.809 289.654 334.779C289.654 334.662 289.899 331.953 291.151 330.867C291.326 330.718 291.53 330.606 291.751 330.539C291.971 330.471 292.203 330.45 292.432 330.476C293.058 330.535 293.234 330.848 293.283 331.092C293.459 332.217 291.092 334.368 289.899 334.906L289.83 334.936ZM292.246 330.808C291.925 330.807 291.614 330.926 291.375 331.141C290.456 331.904 290.133 333.733 290.036 334.466C291.317 333.752 293.067 331.914 292.97 331.161C292.97 331.082 292.97 330.867 292.432 330.818L292.246 330.808Z" fill="#407BFF"/>
<path d="M210.691 186.162L220.334 183.717L215.737 192.979C215.737 192.979 209.214 193.263 207.062 189.624L210.691 186.162Z" fill="#E58A7B"/>
<path d="M228.128 187.228L223.864 194.778L215.737 192.979L220.334 183.717L228.128 187.228Z" fill="#E58A7B"/>
<path d="M216.94 114.211L218.984 113.996C218.984 113.996 217.722 115.336 216.94 114.211Z" fill="#263238"/>
<path d="M189.429 208.637L189.096 212.334C188.959 212.627 189.292 212.92 189.771 212.92H231.571C231.943 212.92 232.246 212.735 232.275 212.5L232.647 208.803C232.647 208.549 232.344 208.334 231.943 208.334H190.104C189.975 208.323 189.845 208.345 189.727 208.398C189.609 208.451 189.506 208.533 189.429 208.637Z" fill="#407BFF"/>
<path d="M195.052 213.321H193.928C193.703 213.321 193.536 213.204 193.546 213.067L194.074 208.255C194.074 208.118 194.29 208.001 194.514 208.001H195.6C195.825 208.001 195.991 208.118 195.981 208.255L195.453 213.067C195.463 213.204 195.268 213.321 195.052 213.321Z" fill="#263238"/>
<path d="M228.422 213.321H227.297C227.072 213.321 226.906 213.204 226.916 213.067L227.444 208.255C227.444 208.118 227.659 208.001 227.884 208.001H228.999C229.224 208.001 229.39 208.118 229.38 208.255L228.852 213.067C228.852 213.204 228.637 213.321 228.422 213.321Z" fill="#263238"/>
<path d="M211.737 213.321H210.612C210.387 213.321 210.221 213.204 210.231 213.067L210.759 208.255C210.759 208.118 210.974 208.001 211.199 208.001H212.314C212.539 208.001 212.705 208.118 212.695 208.255L212.167 213.067C212.148 213.204 211.962 213.321 211.737 213.321Z" fill="#263238"/>
<path d="M182.729 149.37C178.583 150.632 173.615 164.881 173.615 164.881L186.964 177.918C186.964 177.918 195.532 164.47 193.81 159.121C191.981 153.546 187.453 147.942 182.729 149.37Z" fill="#407BFF"/>
<path opacity="0.5" d="M182.729 149.37C178.583 150.632 173.615 164.881 173.615 164.881L186.964 177.918C186.964 177.918 195.532 164.47 193.81 159.121C191.981 153.546 187.453 147.942 182.729 149.37Z" fill="white"/>
<path d="M404.559 200.901H326.75V352.246H404.559V200.901Z" fill="#407BFF"/>
<path opacity="0.6" d="M404.559 200.901H326.75V352.246H404.559V200.901Z" fill="white"/>
<path d="M253.82 200.901H176.011V352.246H253.82V200.901Z" fill="#407BFF"/>
<path opacity="0.6" d="M253.82 200.901H176.011V352.246H253.82V200.901Z" fill="white"/>
<path d="M407.474 200.901H401.058V352.246H407.474V200.901Z" fill="#407BFF"/>
<path opacity="0.3" d="M407.474 200.901H401.058V352.246H407.474V200.901Z" fill="black"/>
<path d="M254.749 212.255L409.459 212.255V200.901L254.749 200.901V212.255Z" fill="#407BFF"/>
<path opacity="0.3" d="M254.749 212.255L409.459 212.255V200.901L254.749 200.901V212.255Z" fill="black"/>
<path d="M256.745 200.901H250.329V352.246H256.745V200.901Z" fill="#407BFF"/>
<path opacity="0.3" d="M256.745 200.901H250.329V352.246H256.745V200.901Z" fill="black"/>
<path d="M254.378 237.106L404.266 237.106V204.412L254.378 204.412V237.106Z" fill="#407BFF"/>
<path opacity="0.3" d="M254.378 237.106L404.266 237.106V204.412L254.378 204.412V237.106Z" fill="black"/>
<path d="M404.599 356.647H361.4C358.468 356.645 355.656 355.478 353.582 353.405C351.508 351.331 350.342 348.519 350.339 345.586V209.292C350.339 206.698 349.309 204.211 347.475 202.376C345.641 200.542 343.153 199.512 340.559 199.512H327.63V198.534H340.549C343.403 198.534 346.139 199.667 348.157 201.685C350.174 203.702 351.307 206.439 351.307 209.292V345.586C351.31 348.259 352.373 350.823 354.264 352.713C356.154 354.604 358.717 355.667 361.391 355.669H404.599C405.334 355.671 406.051 355.44 406.647 355.01C407.244 354.58 407.689 353.972 407.92 353.274C408.151 352.576 408.156 351.823 407.933 351.122C407.711 350.421 407.273 349.808 406.682 349.371L407.259 348.589C408.014 349.149 408.572 349.932 408.856 350.828C409.14 351.724 409.134 352.686 408.84 353.579C408.545 354.471 407.977 355.248 407.215 355.799C406.454 356.35 405.538 356.647 404.599 356.647Z" fill="#407BFF"/>
<path opacity="0.3" d="M404.599 356.647H361.4C358.468 356.645 355.656 355.478 353.582 353.405C351.508 351.331 350.342 348.519 350.339 345.586V209.292C350.339 206.698 349.309 204.211 347.475 202.376C345.641 200.542 343.153 199.512 340.559 199.512H327.63V198.534H340.549C343.403 198.534 346.139 199.667 348.157 201.685C350.174 203.702 351.307 206.439 351.307 209.292V345.586C351.31 348.259 352.373 350.823 354.264 352.713C356.154 354.604 358.717 355.667 361.391 355.669H404.599C405.334 355.671 406.051 355.44 406.647 355.01C407.244 354.58 407.689 353.972 407.92 353.274C408.151 352.576 408.156 351.823 407.933 351.122C407.711 350.421 407.273 349.808 406.682 349.371L407.259 348.589C408.014 349.149 408.572 349.932 408.856 350.828C409.14 351.724 409.134 352.686 408.84 353.579C408.545 354.471 407.977 355.248 407.215 355.799C406.454 356.35 405.538 356.647 404.599 356.647Z" fill="black"/>
<path d="M410.897 245.556H409.919V264.461H410.897V245.556Z" fill="#407BFF"/>
<path opacity="0.3" d="M410.897 245.556H409.919V264.461H410.897V245.556Z" fill="black"/>
<path d="M410.897 234.397H409.919V239.366H410.897V234.397Z" fill="#407BFF"/>
<path opacity="0.3" d="M410.897 234.397H409.919V239.366H410.897V234.397Z" fill="black"/>
<path d="M339.268 155.717H266.759L256.256 198.534H328.755L339.268 155.717Z" fill="#407BFF"/>
<path opacity="0.4" d="M339.268 155.717H266.759L256.256 198.534H328.755L339.268 155.717Z" fill="white"/>
<path d="M258.476 198.534L258.182 200.901H229.732L230.026 198.534H258.476Z" fill="#407BFF"/>
<path opacity="0.4" d="M258.476 198.534L258.182 200.901H229.732L230.026 198.534H258.476Z" fill="white"/>
<path d="M330.985 198.534L330.691 200.901H258.182L258.476 198.534H330.985Z" fill="#407BFF"/>
<path opacity="0.5" d="M330.985 198.534L330.691 200.901H258.182L258.476 198.534H330.985Z" fill="black"/>
<path d="M341.498 155.717H268.989L258.485 198.534H330.985L341.498 155.717Z" fill="#407BFF"/>
<path opacity="0.5" d="M341.498 155.717H268.989L258.485 198.534H330.985L341.498 155.717Z" fill="black"/>
<path d="M369.498 190.113C369.498 190.113 358.828 171.717 373.596 157.077C373.596 157.077 377.459 159.6 377.4 162.945C377.342 166.289 373.263 167.189 374.134 170.006C375.004 172.822 378.867 175.61 376.334 177.947C373.801 180.285 376.745 182.358 376.569 185.214C376.393 188.069 369.498 190.113 369.498 190.113Z" fill="#407BFF"/>
<path d="M370.31 191.796C370.31 191.796 374.633 170.974 355.972 161.751C355.972 161.751 353.097 165.36 354.222 168.597C355.347 171.835 359.484 171.316 359.542 174.28C359.601 177.243 356.823 181.077 359.963 182.495C363.102 183.913 360.941 186.818 362.026 189.478C363.112 192.138 370.31 191.796 370.31 191.796Z" fill="#407BFF"/>
<path opacity="0.5" d="M370.31 191.796C370.31 191.796 374.633 170.974 355.972 161.751C355.972 161.751 353.097 165.36 354.222 168.597C355.347 171.835 359.484 171.316 359.542 174.28C359.601 177.243 356.823 181.077 359.963 182.495C363.102 183.913 360.941 186.818 362.026 189.478C363.112 192.138 370.31 191.796 370.31 191.796Z" fill="black"/>
<path d="M353.958 187.179C353.958 187.179 354.32 200.871 367.924 200.871C381.528 200.871 381.88 187.179 381.88 187.179H353.958Z" fill="#407BFF"/>
<path opacity="0.5" d="M353.958 187.179C353.958 187.179 354.32 200.871 367.924 200.871C381.528 200.871 381.88 187.179 381.88 187.179H353.958Z" fill="black"/>
<path d="M280.833 97.4675L269.214 82.4552L257.595 97.4675H263.062V116.9H275.366V97.4675H280.833Z" fill="#407BFF"/>
<path d="M314.916 115.12C314.916 107.858 317.801 100.892 322.937 95.757C328.072 90.6215 335.037 87.7364 342.3 87.7364V94.866C339.642 94.8647 337.01 95.3872 334.554 96.4035C332.097 97.4198 329.866 98.9101 327.986 100.789C326.106 102.668 324.614 104.899 323.597 107.355C322.579 109.811 322.055 112.443 322.055 115.101L314.916 115.12Z" fill="#407BFF"/>
<path d="M314.916 115.12H322.055C322.055 120.49 324.188 125.639 327.985 129.435C331.782 133.232 336.931 135.365 342.3 135.365C345.852 135.371 349.342 134.433 352.413 132.646L355.992 138.876C351.829 141.28 347.107 142.545 342.3 142.545C337.493 142.545 332.77 141.279 328.608 138.876C324.445 136.472 320.988 133.015 318.584 128.852C316.181 124.689 314.916 119.967 314.916 115.16V115.12Z" fill="#407BFF"/>
<path opacity="0.5" d="M314.916 115.12H322.055C322.055 120.49 324.188 125.639 327.985 129.435C331.782 133.232 336.931 135.365 342.3 135.365C345.852 135.371 349.342 134.433 352.413 132.646L355.992 138.876C351.829 141.28 347.107 142.545 342.3 142.545C337.493 142.545 332.77 141.279 328.608 138.876C324.445 136.472 320.988 133.015 318.584 128.852C316.181 124.689 314.916 119.967 314.916 115.16V115.12Z" fill="white"/>
<path d="M342.3 94.866V87.7168C348.347 87.6937 354.232 89.673 359.037 93.346C363.841 97.019 367.294 102.179 368.858 108.021C370.421 113.863 370.007 120.058 367.68 125.639C365.352 131.221 361.243 135.875 355.992 138.876L352.422 132.685C356.311 130.472 359.356 127.031 361.081 122.903C362.806 118.775 363.115 114.191 361.958 109.869C360.801 105.547 358.244 101.73 354.687 99.0151C351.131 96.3006 346.774 94.8414 342.3 94.866Z" fill="#407BFF"/>
<path opacity="0.7" d="M342.3 94.866V87.7168C348.347 87.6937 354.232 89.673 359.037 93.346C363.841 97.019 367.294 102.179 368.858 108.021C370.421 113.863 370.007 120.058 367.68 125.639C365.352 131.221 361.243 135.875 355.992 138.876L352.422 132.685C356.311 130.472 359.356 127.031 361.081 122.903C362.806 118.775 363.115 114.191 361.958 109.869C360.801 105.547 358.244 101.73 354.687 99.0151C351.131 96.3006 346.774 94.8414 342.3 94.866Z" fill="black"/>
<path d="M316.588 47.922H291.64C290.75 47.922 289.897 48.2754 289.268 48.9045C288.639 49.5336 288.285 50.3869 288.285 51.2765V97.4088C288.293 98.2934 288.65 99.1391 289.278 99.7619C289.906 100.385 290.755 100.734 291.64 100.734H323.571C324.459 100.731 325.31 100.377 325.937 99.748C326.564 99.1192 326.916 98.2675 326.916 97.3795V58.2595L316.588 47.922Z" fill="#263238"/>
<path d="M315.121 96.1472H294.378C293.989 96.1472 293.616 95.9926 293.341 95.7175C293.066 95.4424 292.911 95.0693 292.911 94.6802C292.914 94.2928 293.069 93.9222 293.344 93.6492C293.619 93.3762 293.991 93.223 294.378 93.223H315.131C315.519 93.223 315.89 93.3762 316.165 93.6492C316.44 93.9222 316.596 94.2928 316.598 94.6802C316.596 95.0702 316.439 95.4433 316.162 95.7181C315.885 95.993 315.511 96.1472 315.121 96.1472Z" fill="#407BFF"/>
<path d="M305.341 55.4819H294.378C293.991 55.4819 293.619 55.3287 293.344 55.0557C293.069 54.7827 292.914 54.4121 292.911 54.0247C292.911 53.6356 293.066 53.2625 293.341 52.9874C293.616 52.7123 293.989 52.5577 294.378 52.5577H305.351C305.74 52.5577 306.113 52.7123 306.388 52.9874C306.664 53.2625 306.818 53.6356 306.818 54.0247C306.817 54.2174 306.778 54.4079 306.703 54.5854C306.628 54.7629 306.519 54.9239 306.382 55.0592C306.244 55.1945 306.082 55.3015 305.904 55.374C305.725 55.4465 305.534 55.4832 305.341 55.4819Z" fill="#407BFF"/>
<path d="M312.51 61.2913H294.378C293.991 61.2913 293.619 61.138 293.344 60.865C293.069 60.592 292.914 60.2214 292.911 59.834C292.911 59.445 293.066 59.0718 293.341 58.7967C293.616 58.5216 293.989 58.367 294.378 58.367H312.52C312.907 58.3696 313.278 58.5253 313.551 58.8001C313.824 59.075 313.977 59.4467 313.977 59.834C313.977 60.0262 313.939 60.2165 313.865 60.394C313.791 60.5714 313.683 60.7325 313.547 60.8679C313.41 61.0034 313.249 61.1105 313.071 61.1832C312.893 61.2558 312.702 61.2925 312.51 61.2913Z" fill="#407BFF"/>
<path d="M320.843 67.1006H294.378C293.991 67.1006 293.619 66.9474 293.344 66.6744C293.069 66.4014 292.914 66.0307 292.911 65.6434C292.911 65.2543 293.066 64.8812 293.341 64.606C293.616 64.3309 293.989 64.1764 294.378 64.1764H320.852C321.242 64.1764 321.615 64.3309 321.89 64.606C322.165 64.8812 322.319 65.2543 322.319 65.6434C322.318 65.836 322.279 66.0265 322.204 66.204C322.129 66.3815 322.02 66.5425 321.883 66.6778C321.746 66.8131 321.583 66.9201 321.405 66.9927C321.226 67.0652 321.035 67.1019 320.843 67.1006Z" fill="#407BFF"/>
<path d="M320.843 72.9099H305.449C305.062 72.9099 304.69 72.7567 304.415 72.4837C304.14 72.2107 303.985 71.84 303.982 71.4527C303.982 71.0636 304.137 70.6904 304.412 70.4153C304.687 70.1402 305.06 69.9857 305.449 69.9857H320.843C321.232 69.9857 321.605 70.1402 321.88 70.4153C322.155 70.6904 322.31 71.0636 322.31 71.4527C322.307 71.84 322.151 72.2107 321.877 72.4837C321.602 72.7567 321.23 72.9099 320.843 72.9099Z" fill="#407BFF"/>
<path d="M298.388 72.9099H294.378C293.991 72.9099 293.619 72.7567 293.344 72.4837C293.069 72.2107 292.914 71.84 292.911 71.4527C292.911 71.0636 293.066 70.6904 293.341 70.4153C293.616 70.1402 293.989 69.9857 294.378 69.9857H298.398C298.787 69.9857 299.16 70.1402 299.435 70.4153C299.71 70.6904 299.865 71.0636 299.865 71.4527C299.863 71.6453 299.824 71.8358 299.749 72.0133C299.674 72.1908 299.565 72.3518 299.428 72.4871C299.291 72.6224 299.128 72.7294 298.95 72.802C298.771 72.8745 298.58 72.9112 298.388 72.9099Z" fill="#407BFF"/>
<path d="M320.843 78.7192H294.378C293.989 78.7192 293.616 78.5647 293.341 78.2896C293.066 78.0144 292.911 77.6413 292.911 77.2522C292.914 76.8649 293.069 76.4942 293.344 76.2212C293.619 75.9482 293.991 75.795 294.378 75.795H320.852C321.24 75.795 321.611 75.9482 321.886 76.2212C322.161 76.4942 322.317 76.8649 322.319 77.2522C322.319 77.4457 322.281 77.6373 322.207 77.8159C322.133 77.9945 322.024 78.1567 321.886 78.293C321.749 78.4294 321.586 78.5372 321.407 78.6104C321.228 78.6835 321.036 78.7205 320.843 78.7192Z" fill="#407BFF"/>
<path d="M310.623 84.5285H294.378C293.989 84.5285 293.616 84.374 293.341 84.0989C293.066 83.8238 292.911 83.4506 292.911 83.0616C292.914 82.6742 293.069 82.3035 293.344 82.0305C293.619 81.7575 293.991 81.6043 294.378 81.6043H310.632C311.02 81.6043 311.391 81.7575 311.666 82.0305C311.941 82.3035 312.097 82.6742 312.099 83.0616C312.099 83.255 312.061 83.4466 311.987 83.6252C311.912 83.8039 311.803 83.966 311.666 84.1024C311.529 84.2387 311.366 84.3466 311.187 84.4197C311.008 84.4928 310.816 84.5298 310.623 84.5285Z" fill="#407BFF"/>
<path d="M320.843 84.5285H316.5C316.113 84.526 315.742 84.3703 315.469 84.0954C315.196 83.8206 315.043 83.4489 315.043 83.0615C315.043 82.6751 315.197 82.3044 315.47 82.0311C315.743 81.7579 316.114 81.6043 316.5 81.6043H320.843C321.23 81.6043 321.602 81.7575 321.877 82.0305C322.151 82.3035 322.307 82.6742 322.31 83.0615C322.31 83.4506 322.155 83.8238 321.88 84.0989C321.605 84.374 321.232 84.5285 320.843 84.5285Z" fill="#407BFF"/>
<path d="M320.843 90.3378H294.378C293.989 90.3378 293.616 90.1833 293.341 89.9082C293.066 89.6331 292.911 89.2599 292.911 88.8708C292.914 88.4835 293.069 88.1128 293.344 87.8398C293.619 87.5668 293.991 87.4136 294.378 87.4136H320.852C321.24 87.4136 321.611 87.5668 321.886 87.8398C322.161 88.1128 322.317 88.4835 322.319 88.8708C322.319 89.0643 322.281 89.2559 322.207 89.4345C322.133 89.6131 322.024 89.7753 321.886 89.9116C321.749 90.048 321.586 90.1559 321.407 90.229C321.228 90.3021 321.036 90.3391 320.843 90.3378Z" fill="#407BFF"/>
<g opacity="0.5">
<path d="M315.121 96.1472H294.378C293.989 96.1472 293.616 95.9926 293.341 95.7175C293.066 95.4424 292.911 95.0693 292.911 94.6802C292.914 94.2928 293.069 93.9222 293.344 93.6492C293.619 93.3762 293.991 93.223 294.378 93.223H315.131C315.519 93.223 315.89 93.3762 316.165 93.6492C316.44 93.9222 316.596 94.2928 316.598 94.6802C316.596 95.0702 316.439 95.4433 316.162 95.7181C315.885 95.993 315.511 96.1472 315.121 96.1472Z" fill="white"/>
</g>
<g opacity="0.5">
<path d="M305.341 55.4819H294.378C293.991 55.4819 293.619 55.3287 293.344 55.0557C293.069 54.7827 292.914 54.4121 292.911 54.0247C292.911 53.6356 293.066 53.2625 293.341 52.9874C293.616 52.7123 293.989 52.5577 294.378 52.5577H305.351C305.74 52.5577 306.113 52.7123 306.388 52.9874C306.664 53.2625 306.818 53.6356 306.818 54.0247C306.817 54.2174 306.778 54.4079 306.703 54.5854C306.628 54.7629 306.519 54.9239 306.382 55.0592C306.244 55.1945 306.082 55.3015 305.904 55.374C305.725 55.4465 305.534 55.4832 305.341 55.4819Z" fill="white"/>
</g>
<g opacity="0.5">
<path d="M312.51 61.2913H294.378C293.991 61.2913 293.619 61.138 293.344 60.865C293.069 60.592 292.914 60.2214 292.911 59.834C292.911 59.445 293.066 59.0718 293.341 58.7967C293.616 58.5216 293.989 58.367 294.378 58.367H312.52C312.907 58.3696 313.278 58.5253 313.551 58.8001C313.824 59.075 313.977 59.4467 313.977 59.834C313.977 60.0262 313.939 60.2165 313.865 60.394C313.791 60.5714 313.683 60.7325 313.547 60.8679C313.41 61.0034 313.249 61.1105 313.071 61.1832C312.893 61.2558 312.702 61.2925 312.51 61.2913Z" fill="white"/>
</g>
<g opacity="0.5">
<path d="M320.843 67.1006H294.378C293.991 67.1006 293.619 66.9474 293.344 66.6744C293.069 66.4014 292.914 66.0307 292.911 65.6434C292.911 65.2543 293.066 64.8812 293.341 64.606C293.616 64.3309 293.989 64.1764 294.378 64.1764H320.852C321.242 64.1764 321.615 64.3309 321.89 64.606C322.165 64.8812 322.319 65.2543 322.319 65.6434C322.318 65.836 322.279 66.0265 322.204 66.204C322.129 66.3815 322.02 66.5425 321.883 66.6778C321.746 66.8131 321.583 66.9201 321.405 66.9927C321.226 67.0652 321.035 67.1019 320.843 67.1006Z" fill="white"/>
</g>
<g opacity="0.5">
<path d="M320.843 72.9099H305.449C305.062 72.9099 304.69 72.7567 304.415 72.4837C304.14 72.2107 303.985 71.84 303.982 71.4527C303.982 71.0636 304.137 70.6904 304.412 70.4153C304.687 70.1402 305.06 69.9857 305.449 69.9857H320.843C321.232 69.9857 321.605 70.1402 321.88 70.4153C322.155 70.6904 322.31 71.0636 322.31 71.4527C322.307 71.84 322.151 72.2107 321.877 72.4837C321.602 72.7567 321.23 72.9099 320.843 72.9099Z" fill="white"/>
</g>
<g opacity="0.5">
<path d="M298.388 72.9099H294.378C293.991 72.9099 293.619 72.7567 293.344 72.4837C293.069 72.2107 292.914 71.84 292.911 71.4527C292.911 71.0636 293.066 70.6904 293.341 70.4153C293.616 70.1402 293.989 69.9857 294.378 69.9857H298.398C298.787 69.9857 299.16 70.1402 299.435 70.4153C299.71 70.6904 299.865 71.0636 299.865 71.4527C299.863 71.6453 299.824 71.8358 299.749 72.0133C299.674 72.1908 299.565 72.3518 299.428 72.4871C299.291 72.6224 299.128 72.7294 298.95 72.802C298.771 72.8745 298.58 72.9112 298.388 72.9099Z" fill="white"/>
</g>
<g opacity="0.5">
<path d="M320.843 78.7192H294.378C293.989 78.7192 293.616 78.5647 293.341 78.2896C293.066 78.0144 292.911 77.6413 292.911 77.2522C292.914 76.8649 293.069 76.4942 293.344 76.2212C293.619 75.9482 293.991 75.795 294.378 75.795H320.852C321.24 75.795 321.611 75.9482 321.886 76.2212C322.161 76.4942 322.317 76.8649 322.319 77.2522C322.319 77.4457 322.281 77.6373 322.207 77.8159C322.133 77.9945 322.024 78.1567 321.886 78.293C321.749 78.4294 321.586 78.5372 321.407 78.6104C321.228 78.6835 321.036 78.7205 320.843 78.7192Z" fill="white"/>
</g>
<g opacity="0.5">
<path d="M310.623 84.5285H294.378C293.989 84.5285 293.616 84.374 293.341 84.0989C293.066 83.8238 292.911 83.4506 292.911 83.0616C292.914 82.6742 293.069 82.3035 293.344 82.0305C293.619 81.7575 293.991 81.6043 294.378 81.6043H310.632C311.02 81.6043 311.391 81.7575 311.666 82.0305C311.941 82.3035 312.097 82.6742 312.099 83.0616C312.099 83.255 312.061 83.4466 311.987 83.6252C311.912 83.8039 311.803 83.966 311.666 84.1024C311.529 84.2387 311.366 84.3466 311.187 84.4197C311.008 84.4928 310.816 84.5298 310.623 84.5285Z" fill="white"/>
</g>
<g opacity="0.5">
<path d="M320.843 84.5285H316.5C316.113 84.526 315.742 84.3703 315.469 84.0954C315.196 83.8206 315.043 83.4489 315.043 83.0615C315.043 82.6751 315.197 82.3044 315.47 82.0311C315.743 81.7579 316.114 81.6043 316.5 81.6043H320.843C321.23 81.6043 321.602 81.7575 321.877 82.0305C322.151 82.3035 322.307 82.6742 322.31 83.0615C322.31 83.4506 322.155 83.8238 321.88 84.0989C321.605 84.374 321.232 84.5285 320.843 84.5285Z" fill="white"/>
</g>
<g opacity="0.5">
<path d="M320.843 90.3378H294.378C293.989 90.3378 293.616 90.1833 293.341 89.9082C293.066 89.6331 292.911 89.2599 292.911 88.8708C292.914 88.4835 293.069 88.1128 293.344 87.8398C293.619 87.5668 293.991 87.4136 294.378 87.4136H320.852C321.24 87.4136 321.611 87.5668 321.886 87.8398C322.161 88.1128 322.317 88.4835 322.319 88.8708C322.319 89.0643 322.281 89.2559 322.207 89.4345C322.133 89.6131 322.024 89.7753 321.886 89.9116C321.749 90.048 321.586 90.1559 321.407 90.229C321.228 90.3021 321.036 90.3391 320.843 90.3378Z" fill="white"/>
</g>
<path d="M316.588 47.922V54.9049C316.587 55.3458 316.673 55.7826 316.841 56.1902C317.009 56.5977 317.256 56.9681 317.568 57.2798C317.88 57.5916 318.25 57.8386 318.658 58.0067C319.065 58.1749 319.502 58.2607 319.943 58.2595H326.916L316.588 47.922Z" fill="#407BFF"/>
<path opacity="0.5" d="M316.588 47.922V54.9049C316.587 55.3458 316.673 55.7826 316.841 56.1902C317.009 56.5977 317.256 56.9681 317.568 57.2798C317.88 57.5916 318.25 57.8386 318.658 58.0067C319.065 58.1749 319.502 58.2607 319.943 58.2595H326.916L316.588 47.922Z" fill="white"/>
</svg>
