<svg width="588" height="439" viewBox="0 0 588 439" fill="none" xmlns="http://www.w3.org/2000/svg">
<path d="M588 385.022H0V385.316H588V385.022Z" fill="#E6E6E6"/>
<path d="M524.32 395.195H502.528V395.489H524.32V395.195Z" fill="#E6E6E6"/>
<path d="M494.802 395.195H464.038V395.489H494.802V395.195Z" fill="#E6E6E6"/>
<path d="M410.883 395.489H388.115V395.783H410.883V395.489Z" fill="#E6E6E6"/>
<path d="M99.6895 392.819H48.8981V393.113H99.6895V392.819Z" fill="#E6E6E6"/>
<path d="M38.4199 392.819H30.9758V393.113H38.4199V392.819Z" fill="#E6E6E6"/>
<path d="M193.981 401.675H119.917V401.969H193.981V401.675Z" fill="#E6E6E6"/>
<path d="M278.712 332.573H51.6381C49.8593 332.57 48.1543 331.861 46.8975 330.602C45.6408 329.343 44.9349 327.637 44.9349 325.858V6.65616C44.9504 4.88749 45.6631 3.19634 46.9182 1.95006C48.1733 0.703787 49.8694 0.00302983 51.6381 0H278.712C280.493 0 282.201 0.707467 283.46 1.96677C284.719 3.22607 285.427 4.93404 285.427 6.71496V325.858C285.427 327.639 284.719 329.347 283.46 330.606C282.201 331.865 280.493 332.573 278.712 332.573ZM51.6381 0.235201C49.9372 0.238316 48.3071 0.916181 47.1054 2.12001C45.9038 3.32383 45.2289 4.95525 45.2289 6.65616V325.858C45.2289 327.559 45.9038 329.19 47.1054 330.394C48.3071 331.598 49.9372 332.276 51.6381 332.279H278.712C280.414 332.276 282.045 331.598 283.249 330.395C284.452 329.191 285.13 327.56 285.133 325.858V6.65616C285.13 4.95417 284.452 3.32278 283.249 2.11929C282.045 0.915799 280.414 0.23831 278.712 0.235201H51.6381Z" fill="#E6E6E6"/>
<path d="M533.093 332.573H306.007C304.227 332.57 302.521 331.861 301.262 330.603C300.004 329.344 299.295 327.638 299.292 325.858V6.65616C299.311 4.88641 300.026 3.19528 301.283 1.94933C302.54 0.703376 304.237 0.00299679 306.007 0H533.093C534.859 0.00612049 536.552 0.708245 537.805 1.95419C539.057 3.20014 539.769 4.88952 539.784 6.65616V325.858C539.784 327.635 539.08 329.339 537.826 330.598C536.571 331.856 534.869 332.567 533.093 332.573ZM306.007 0.235201C304.305 0.23831 302.674 0.915799 301.47 2.11929C300.267 3.32278 299.589 4.95417 299.586 6.65616V325.858C299.589 327.56 300.267 329.191 301.47 330.395C302.674 331.598 304.305 332.276 306.007 332.279H533.093C534.795 332.276 536.426 331.598 537.629 330.395C538.833 329.191 539.51 327.56 539.514 325.858V6.65616C539.51 4.95417 538.833 3.32278 537.629 2.11929C536.426 0.915799 534.795 0.23831 533.093 0.235201H306.007Z" fill="#E6E6E6"/>
<path d="M495.12 35.9386H335.536V188.301H495.12V35.9386Z" fill="#E0E0E0"/>
<path d="M498.659 35.9386H339.076V188.301H498.659V35.9386Z" fill="#F5F5F5"/>
<path d="M492.297 181.151V43.0886L345.45 43.0886V181.151H492.297Z" fill="white"/>
<path d="M492.297 181.151V43.0886H489.616V181.151H492.297Z" fill="#E0E0E0"/>
<path d="M496.025 138.239H341.71V147.835H496.025V138.239Z" fill="#F5F5F5"/>
<path d="M297.822 310.758H266.329V380.601H297.822V310.758Z" fill="#E6E6E6"/>
<path d="M411.059 380.601H272.385V385.022H411.059V380.601Z" fill="#E6E6E6"/>
<path d="M297.822 380.601H417.092V310.758H297.822V380.601Z" fill="#FAFAFA"/>
<path d="M310.205 342.263H404.709V319.355H310.205V342.263Z" fill="#E6E6E6"/>
<path d="M310.205 371.992H404.709V349.084H310.205V371.992Z" fill="#E6E6E6"/>
<path d="M371.628 329.233H343.298C342.532 329.233 341.91 329.854 341.91 330.621V330.985C341.91 331.752 342.532 332.373 343.298 332.373H371.628C372.394 332.373 373.015 331.752 373.015 330.985V330.621C373.015 329.854 372.394 329.233 371.628 329.233Z" fill="#FAFAFA"/>
<path d="M371.628 358.974H343.298C342.532 358.974 341.91 359.595 341.91 360.362V360.726C341.91 361.493 342.532 362.114 343.298 362.114H371.628C372.394 362.114 373.015 361.493 373.015 360.726V360.362C373.015 359.595 372.394 358.974 371.628 358.974Z" fill="#FAFAFA"/>
<path d="M105.475 236.87H73.3471V376.191H105.475V236.87Z" fill="#E6E6E6"/>
<path d="M237.952 376.191H79.5211V385.022H237.952V376.191Z" fill="#E6E6E6"/>
<path d="M105.475 376.191H244.114L244.114 236.87L105.475 236.87L105.475 376.191Z" fill="#FAFAFA"/>
<path d="M118.106 299.704H231.484V254.004H118.106V299.704Z" fill="#E6E6E6"/>
<path d="M118.106 359.045H231.484V313.345H118.106V359.045Z" fill="#E6E6E6"/>
<path d="M187.525 279.994H162.065C161.236 279.991 160.442 279.66 159.856 279.074C159.27 278.488 158.939 277.694 158.936 276.866C158.936 276.035 159.266 275.238 159.852 274.65C160.438 274.061 161.234 273.729 162.065 273.726H187.525C188.356 273.729 189.151 274.061 189.738 274.65C190.324 275.238 190.653 276.035 190.653 276.866C190.65 277.694 190.319 278.488 189.733 279.074C189.148 279.66 188.354 279.991 187.525 279.994Z" fill="#FAFAFA"/>
<path d="M187.525 339.323H162.065C161.236 339.32 160.442 338.989 159.856 338.403C159.27 337.817 158.939 337.024 158.936 336.195C158.939 335.366 159.27 334.572 159.856 333.986C160.442 333.4 161.236 333.07 162.065 333.067H187.525C188.354 333.07 189.148 333.4 189.733 333.986C190.319 334.572 190.65 335.366 190.653 336.195C190.653 337.025 190.324 337.82 189.737 338.407C189.15 338.993 188.355 339.323 187.525 339.323Z" fill="#FAFAFA"/>
<path d="M370.44 299.68C370.44 299.68 346.779 258.885 379.601 226.415C379.601 226.415 388.174 231.99 388.045 239.504C387.915 247.019 378.872 248.912 380.812 255.18C382.753 261.448 391.29 267.587 385.693 272.82C380.095 278.053 386.586 282.605 386.21 288.955C385.834 295.305 370.44 299.68 370.44 299.68Z" fill="#FAFAFA"/>
<path d="M335.842 288.026C335.842 288.026 336.654 310.758 367.676 310.758C398.699 310.758 399.499 288.026 399.499 288.026H335.842Z" fill="#E6E6E6"/>
<path d="M372.227 303.408C372.227 303.408 381.812 257.226 340.475 236.764C340.475 236.764 334.113 244.773 336.606 251.852C339.1 258.932 348.272 257.885 348.366 264.447C348.461 271.009 342.322 279.535 349.284 282.675C356.246 285.815 351.506 292.26 353.87 298.163C356.234 304.067 372.227 303.408 372.227 303.408Z" fill="#E6E6E6"/>
<path d="M183.515 106.828C183.515 106.828 184.326 120.493 215.337 120.493C246.348 120.493 247.172 106.828 247.172 106.828H183.515Z" fill="#F0F0F0"/>
<path d="M99.4073 130.442L94.3152 164.417H99.4073L130.642 130.442H99.4073Z" fill="#F5F5F5"/>
<path d="M94.3152 130.442V164.417L125.55 130.442H94.3152Z" fill="#E0E0E0"/>
<path d="M221.911 130.442L216.807 164.417H221.911L253.146 130.442H221.911Z" fill="#F5F5F5"/>
<path d="M216.807 130.442V164.417L248.054 130.442H216.807Z" fill="#E0E0E0"/>
<path d="M71.3714 131.089H105.346V120.493H71.3714V131.089Z" fill="#E0E0E0"/>
<path d="M274.267 120.493H105.358V131.089H274.267V120.493Z" fill="#F5F5F5"/>
<path d="M140.062 76.9575C148.846 78.1335 154.279 59.094 134.887 42.9358C135.934 61.6342 124.762 74.8524 140.062 76.9575Z" fill="#E0E0E0"/>
<path d="M146.518 101.959C159.242 93.0334 150.528 61.8576 111.132 64.1155C128.184 87.024 124.315 117.506 146.518 101.959Z" fill="#E0E0E0"/>
<path d="M142.026 101.748C133.558 92.6335 145.554 69.7015 176.047 78.0747C158.854 93.1745 156.773 117.6 142.026 101.748Z" fill="#E0E0E0"/>
<path d="M152.88 88.4587C155.808 84.9307 159.266 80.8853 158.431 76.6987C157.596 72.5121 155.491 69.3017 157.161 64.7858C159.16 59.3762 158.772 52.92 155.397 53.4609C152.022 54.0019 148.235 57.965 148.341 63.1982C148.446 68.4314 145.083 69.9014 141.967 72.6062C138.85 75.311 137.639 79.2389 137.075 83.1902C136.098 89.3289 128.137 88.1647 126.02 93.5037C123.845 98.6546 128.196 105.522 135.158 107.098C142.12 108.674 147.082 109.662 151.833 104.229C156.655 98.3606 148.541 93.5625 152.88 88.4587Z" fill="#F5F5F5"/>
<path d="M128.913 120.493H155.079L157.055 103.1H126.937L128.913 120.493Z" fill="#E6E6E6"/>
<path d="M124.997 106.205H159.007V102.371H124.997V106.205Z" fill="#E6E6E6"/>
<path d="M213.867 218.125H185.455V236.858H213.867V218.125Z" fill="#F5F5F5"/>
<path d="M164.123 236.87H185.455V218.136H164.123V236.87Z" fill="#E0E0E0"/>
<path d="M155.796 208.152H143.613V236.87H155.796V208.152Z" fill="#F5F5F5"/>
<path d="M134.464 236.87H143.613V208.152H134.464V236.87Z" fill="#E0E0E0"/>
<path d="M294 438.131C419.929 438.131 522.015 432.17 522.015 424.818C522.015 417.466 419.929 411.506 294 411.506C168.071 411.506 65.9854 417.466 65.9854 424.818C65.9854 432.17 168.071 438.131 294 438.131Z" fill="#F5F5F5"/>
<path d="M184.844 207.94C186.198 208.536 187.632 208.932 189.101 209.116C192.12 209.484 195.172 208.776 197.721 207.117C201.755 204.506 204.201 199.932 203.813 195.722C203.792 195.516 203.695 195.325 203.54 195.188C203.385 195.051 203.184 194.977 202.978 194.981C199.327 194.955 195.716 195.741 192.407 197.283C189.097 198.824 186.173 201.083 183.844 203.895C182.739 199.191 181.763 194.216 181.057 189.089C183.014 190.588 185.314 191.574 187.748 191.958C188.756 192.081 189.777 192.037 190.771 191.829C196.027 190.747 200.179 185.114 203.965 179.175C204.035 179.069 204.082 178.949 204.102 178.823C204.122 178.698 204.116 178.569 204.083 178.446C204.051 178.327 203.992 178.218 203.911 178.126C203.829 178.034 203.727 177.962 203.613 177.917C194.028 173.919 183.868 182.562 180.622 185.679C180.128 181.36 179.865 177.018 179.834 172.672C181.885 173.325 183.99 173.789 186.125 174.06C191.288 174.659 195.628 173.766 198.732 171.367C202.413 168.544 204.118 163.852 203.66 157.819C203.65 157.704 203.616 157.591 203.561 157.49C203.505 157.388 203.429 157.299 203.337 157.228C203.246 157.157 203.14 157.106 203.027 157.078C202.915 157.051 202.798 157.047 202.684 157.067C191.77 158.654 183.385 165.64 179.893 169.003C179.893 168.227 179.893 167.451 179.975 166.651C179.988 166.458 179.934 166.267 179.822 166.11C179.726 164.634 179.303 163.198 178.583 161.907C177.862 160.615 176.864 159.5 175.659 158.642C172.919 156.867 169.085 156.631 164.252 157.925C164.11 157.966 163.977 158.036 163.864 158.131C163.751 158.227 163.658 158.345 163.593 158.478C163.529 158.603 163.496 158.742 163.496 158.883C163.496 159.024 163.529 159.164 163.593 159.289C163.793 159.63 168.015 166.757 175.459 167.639C176.265 167.71 177.076 167.71 177.882 167.639C177.788 169.779 177.752 171.931 177.788 174.083C175.196 171.861 172.151 170.232 168.864 169.31C165.577 168.388 162.129 168.195 158.76 168.744C158.494 168.787 158.254 168.93 158.09 169.144C158.012 169.247 157.957 169.365 157.929 169.491C157.9 169.617 157.899 169.747 157.925 169.873C159.407 177.153 162.994 182.057 167.521 182.974C167.721 182.974 167.933 183.044 168.156 183.08C170.508 183.35 173.872 182.656 177.964 178.764C178.252 183.738 178.814 188.692 179.646 193.605C175.694 191.053 166.627 186.384 158.56 190.924C158.356 191.032 158.198 191.212 158.118 191.429C158.038 191.645 158.04 191.884 158.125 192.1C161.406 198.732 164.981 202.19 169.073 202.684H169.179C172.59 203.048 176.235 201.355 180.363 197.556C181.292 202.354 182.398 206.964 183.574 211.245C179.763 208.058 174.895 207.917 168.533 210.774C168.393 210.839 168.27 210.933 168.173 211.051C168.075 211.169 168.005 211.308 167.968 211.457C167.931 211.598 167.932 211.746 167.972 211.887C168.011 212.027 168.087 212.155 168.191 212.256C168.462 212.527 173.084 216.96 178.775 217.607C180.95 217.88 183.157 217.5 185.114 216.513C187.447 224.343 190.291 232.012 193.628 239.469C193.695 239.609 193.798 239.73 193.926 239.819C194.054 239.907 194.202 239.961 194.357 239.975C194.567 239.995 194.778 239.958 194.969 239.869C195.211 239.751 195.399 239.546 195.495 239.295C195.591 239.044 195.588 238.765 195.486 238.516C191.093 228.639 187.533 218.411 184.844 207.94Z" fill="#407BFF"/>
<g opacity="0.6">
<path d="M184.844 207.94C186.198 208.536 187.632 208.932 189.101 209.116C192.12 209.484 195.172 208.776 197.721 207.117C201.755 204.506 204.201 199.932 203.813 195.722C203.792 195.516 203.695 195.325 203.54 195.188C203.385 195.051 203.184 194.977 202.978 194.981C199.327 194.955 195.716 195.741 192.407 197.283C189.097 198.824 186.173 201.083 183.844 203.895C182.739 199.191 181.763 194.216 181.057 189.089C183.014 190.588 185.314 191.574 187.748 191.958C188.756 192.081 189.777 192.037 190.771 191.829C196.027 190.747 200.179 185.114 203.965 179.175C204.035 179.069 204.082 178.949 204.102 178.823C204.122 178.698 204.116 178.569 204.083 178.446C204.051 178.327 203.992 178.218 203.911 178.126C203.829 178.034 203.727 177.962 203.613 177.917C194.028 173.919 183.868 182.562 180.622 185.679C180.128 181.36 179.865 177.018 179.834 172.672C181.885 173.325 183.99 173.789 186.125 174.06C191.288 174.659 195.628 173.766 198.732 171.367C202.413 168.544 204.118 163.852 203.66 157.819C203.65 157.704 203.616 157.591 203.561 157.49C203.505 157.388 203.429 157.299 203.337 157.228C203.246 157.157 203.14 157.106 203.027 157.078C202.915 157.051 202.798 157.047 202.684 157.067C191.77 158.654 183.385 165.64 179.893 169.003C179.893 168.227 179.893 167.451 179.975 166.651C179.988 166.458 179.934 166.267 179.822 166.11C179.726 164.634 179.303 163.198 178.583 161.907C177.862 160.615 176.864 159.5 175.659 158.642C172.919 156.867 169.085 156.631 164.252 157.925C164.11 157.966 163.977 158.036 163.864 158.131C163.751 158.227 163.658 158.345 163.593 158.478C163.529 158.603 163.496 158.742 163.496 158.883C163.496 159.024 163.529 159.164 163.593 159.289C163.793 159.63 168.015 166.757 175.459 167.639C176.265 167.71 177.076 167.71 177.882 167.639C177.788 169.779 177.752 171.931 177.788 174.083C175.196 171.861 172.151 170.232 168.864 169.31C165.577 168.388 162.129 168.195 158.76 168.744C158.494 168.787 158.254 168.93 158.09 169.144C158.012 169.247 157.957 169.365 157.929 169.491C157.9 169.617 157.899 169.747 157.925 169.873C159.407 177.153 162.994 182.057 167.521 182.974C167.721 182.974 167.933 183.044 168.156 183.08C170.508 183.35 173.872 182.656 177.964 178.764C178.252 183.738 178.814 188.692 179.646 193.605C175.694 191.053 166.627 186.384 158.56 190.924C158.356 191.032 158.198 191.212 158.118 191.429C158.038 191.645 158.04 191.884 158.125 192.1C161.406 198.732 164.981 202.19 169.073 202.684H169.179C172.59 203.048 176.235 201.355 180.363 197.556C181.292 202.354 182.398 206.964 183.574 211.245C179.763 208.058 174.895 207.917 168.533 210.774C168.393 210.839 168.27 210.933 168.173 211.051C168.075 211.169 168.005 211.308 167.968 211.457C167.931 211.598 167.932 211.746 167.972 211.887C168.011 212.027 168.087 212.155 168.191 212.256C168.462 212.527 173.084 216.96 178.775 217.607C180.95 217.88 183.157 217.5 185.114 216.513C187.447 224.343 190.291 232.012 193.628 239.469C193.695 239.609 193.798 239.73 193.926 239.819C194.054 239.907 194.202 239.961 194.357 239.975C194.567 239.995 194.778 239.958 194.969 239.869C195.211 239.751 195.399 239.546 195.495 239.295C195.591 239.044 195.588 238.765 195.486 238.516C191.093 228.639 187.533 218.411 184.844 207.94Z" fill="black"/>
</g>
<path d="M491.392 180.316H207.035C202.365 180.316 198.579 184.102 198.579 188.772V363.901C198.579 368.571 202.365 372.357 207.035 372.357H491.392C496.061 372.357 499.847 368.571 499.847 363.901V188.772C499.847 184.102 496.061 180.316 491.392 180.316Z" fill="#407BFF"/>
<path opacity="0.6" d="M491.392 180.316H207.035C202.365 180.316 198.579 184.102 198.579 188.772V363.901C198.579 368.571 202.365 372.357 207.035 372.357H491.392C496.061 372.357 499.847 368.571 499.847 363.901V188.772C499.847 184.102 496.061 180.316 491.392 180.316Z" fill="black"/>
<path d="M387.751 424.818H317.402C324.294 398.829 320.166 370.828 305.031 344.85H375.379C390.514 370.828 394.642 398.829 387.751 424.818Z" fill="#407BFF"/>
<path d="M384.082 424.818H313.722C320.613 398.829 316.497 370.828 301.35 344.85H371.71C386.904 370.828 390.973 398.829 384.082 424.818Z" fill="#407BFF"/>
<path d="M386.481 382.2H315.356C312.914 369.032 308.172 356.398 301.35 344.874H372.475C379.287 356.402 384.027 369.035 386.481 382.2Z" fill="#407BFF"/>
<g opacity="0.4">
<path d="M387.751 424.818H317.402C324.294 398.829 320.166 370.828 305.031 344.85H375.379C390.514 370.828 394.642 398.829 387.751 424.818Z" fill="black"/>
<path d="M384.082 424.818H313.722C320.613 398.829 316.497 370.828 301.35 344.85H371.71C386.904 370.828 390.973 398.829 384.082 424.818Z" fill="black"/>
<path d="M386.481 382.2H315.356C312.914 369.033 308.172 356.398 301.35 344.874H372.475C379.287 356.402 384.027 369.035 386.481 382.2Z" fill="black"/>
</g>
<path d="M384.082 424.818H313.722C320.613 398.829 316.497 370.828 301.35 344.85H371.71C386.904 370.828 390.973 398.829 384.082 424.818Z" fill="#407BFF"/>
<path opacity="0.2" d="M384.082 424.818H313.722C320.613 398.829 316.497 370.828 301.35 344.85H371.71C386.904 370.828 390.973 398.829 384.082 424.818Z" fill="black"/>
<path opacity="0.2" d="M385.728 382.2H315.286C312.863 369.046 308.168 356.415 301.409 344.874H371.851C378.61 356.415 383.306 369.046 385.728 382.2Z" fill="black"/>
<path d="M487.393 180.316H203.036C198.367 180.316 194.581 184.102 194.581 188.772V363.901C194.581 368.571 198.367 372.357 203.036 372.357H487.393C492.063 372.357 495.849 368.571 495.849 363.901V188.772C495.849 184.102 492.063 180.316 487.393 180.316Z" fill="#407BFF"/>
<path opacity="0.3" d="M487.393 180.316H203.036C198.367 180.316 194.581 184.102 194.581 188.772V363.901C194.581 368.571 198.367 372.357 203.036 372.357H487.393C492.063 372.357 495.849 368.571 495.849 363.901V188.772C495.849 184.102 492.063 180.316 487.393 180.316Z" fill="black"/>
<path d="M371.028 419.256H290.707C289.232 419.256 287.817 419.842 286.774 420.885C285.731 421.928 285.145 423.343 285.145 424.818H376.59C376.59 423.343 376.004 421.928 374.961 420.885C373.918 419.842 372.503 419.256 371.028 419.256Z" fill="#407BFF"/>
<path opacity="0.3" d="M371.028 419.256H290.707C289.232 419.256 287.817 419.842 286.774 420.885C285.731 421.928 285.145 423.343 285.145 424.818H376.59C376.59 423.343 376.004 421.928 374.961 420.885C373.918 419.842 372.503 419.256 371.028 419.256Z" fill="black"/>
<path d="M495.849 190.042H194.581V344.838H495.849V190.042Z" fill="#407BFF"/>
<path opacity="0.84" d="M495.743 190.042H194.475V344.838H495.743V190.042Z" fill="#FAFAFA"/>
<path opacity="0.23" d="M452.066 202.001H249.1C247.256 202.001 245.76 203.497 245.76 205.341V324.07C245.76 325.915 247.256 327.41 249.1 327.41H452.066C453.911 327.41 455.406 325.915 455.406 324.07V205.341C455.406 203.497 453.911 202.001 452.066 202.001Z" fill="#407BFF"/>
<path opacity="0.67" d="M454.524 210.633V324.07C454.524 324.956 454.172 325.806 453.546 326.432C452.919 327.058 452.07 327.41 451.184 327.41H248.218C247.334 327.407 246.486 327.054 245.86 326.429C245.234 325.803 244.882 324.955 244.878 324.07V210.633H454.524Z" fill="#FAFAFA"/>
<path opacity="0.41" d="M453.912 215.079H245.49V322.977H453.912V215.079Z" fill="white"/>
<path opacity="0.19" d="M411.353 289.566C405.876 289.566 400.521 287.942 395.967 284.899C391.412 281.856 387.863 277.531 385.766 272.47C383.67 267.409 383.122 261.841 384.19 256.469C385.259 251.096 387.897 246.162 391.77 242.288C395.643 238.415 400.578 235.778 405.95 234.709C411.322 233.64 416.891 234.189 421.951 236.285C427.012 238.381 431.337 241.931 434.38 246.485C437.424 251.04 439.048 256.394 439.048 261.872C439.039 269.214 436.118 276.253 430.926 281.445C425.734 286.636 418.695 289.557 411.353 289.566ZM411.353 234.471C405.934 234.471 400.636 236.078 396.13 239.089C391.624 242.1 388.112 246.379 386.038 251.386C383.964 256.393 383.421 261.902 384.479 267.217C385.536 272.533 388.146 277.415 391.978 281.247C395.81 285.079 400.692 287.689 406.007 288.746C411.323 289.803 416.832 289.261 421.839 287.187C426.846 285.113 431.125 281.601 434.136 277.095C437.147 272.589 438.754 267.291 438.754 261.872C438.748 254.606 435.859 247.641 430.721 242.503C425.584 237.366 418.618 234.477 411.353 234.471Z" fill="#407BFF"/>
<path opacity="0.19" d="M364.795 289.566C359.318 289.566 353.963 287.942 349.409 284.899C344.854 281.856 341.305 277.531 339.209 272.47C337.112 267.409 336.564 261.841 337.633 256.469C338.701 251.096 341.339 246.162 345.212 242.288C349.085 238.415 354.02 235.778 359.392 234.709C364.764 233.64 370.333 234.189 375.394 236.285C380.454 238.381 384.779 241.931 387.823 246.485C390.866 251.04 392.49 256.394 392.49 261.872C392.478 269.213 389.556 276.25 384.365 281.441C379.174 286.632 372.137 289.554 364.795 289.566ZM364.795 234.471C359.376 234.471 354.078 236.078 349.572 239.089C345.066 242.1 341.554 246.379 339.48 251.386C337.406 256.393 336.864 261.902 337.921 267.217C338.978 272.533 341.588 277.415 345.42 281.247C349.252 285.079 354.134 287.689 359.45 288.746C364.765 289.803 370.274 289.261 375.281 287.187C380.288 285.113 384.567 281.601 387.578 277.095C390.589 272.589 392.196 267.291 392.196 261.872C392.187 254.607 389.297 247.643 384.16 242.507C379.024 237.37 372.06 234.48 364.795 234.471Z" fill="#407BFF"/>
<path opacity="0.19" d="M438.907 305.043H275.443C275.423 305.043 275.404 305.039 275.386 305.031C275.368 305.023 275.352 305.012 275.339 304.997C275.325 304.983 275.315 304.966 275.309 304.947C275.302 304.929 275.3 304.909 275.302 304.89V300.339C275.3 300.319 275.302 300.299 275.309 300.281C275.315 300.262 275.325 300.246 275.339 300.231C275.352 300.217 275.368 300.205 275.386 300.197C275.404 300.19 275.423 300.186 275.443 300.186H438.907C438.926 300.186 438.946 300.19 438.964 300.197C438.982 300.205 438.998 300.217 439.011 300.231C439.024 300.246 439.034 300.262 439.041 300.281C439.047 300.299 439.049 300.319 439.048 300.339V304.89C439.049 304.909 439.047 304.929 439.041 304.947C439.034 304.966 439.024 304.983 439.011 304.997C438.998 305.012 438.982 305.023 438.964 305.031C438.946 305.039 438.926 305.043 438.907 305.043ZM275.549 304.749H438.754V300.48H275.549V304.749Z" fill="#407BFF"/>
<path opacity="0.19" d="M448.056 312.992H251.382C251.362 312.992 251.343 312.988 251.325 312.981C251.307 312.973 251.291 312.961 251.278 312.947C251.264 312.933 251.254 312.916 251.248 312.897C251.241 312.879 251.239 312.859 251.241 312.839V225.204C251.239 225.184 251.241 225.165 251.248 225.146C251.254 225.128 251.264 225.111 251.278 225.096C251.291 225.082 251.307 225.071 251.325 225.063C251.343 225.055 251.362 225.051 251.382 225.051H448.056C448.076 225.051 448.095 225.055 448.113 225.063C448.131 225.071 448.147 225.082 448.16 225.096C448.173 225.111 448.184 225.128 448.19 225.146C448.196 225.165 448.199 225.184 448.197 225.204V312.816C448.203 312.837 448.203 312.859 448.199 312.881C448.194 312.902 448.184 312.922 448.171 312.939C448.157 312.957 448.139 312.97 448.12 312.979C448.1 312.989 448.078 312.993 448.056 312.992ZM251.57 312.698H447.962V225.345H251.535L251.57 312.698Z" fill="#407BFF"/>
<path d="M445.433 206.341C445.431 206.693 445.533 207.037 445.727 207.331C445.921 207.624 446.197 207.854 446.522 207.99C446.846 208.126 447.203 208.163 447.548 208.096C447.894 208.029 448.211 207.86 448.461 207.613C448.71 207.365 448.881 207.048 448.95 206.704C449.019 206.359 448.985 206.001 448.851 205.676C448.717 205.351 448.489 205.073 448.197 204.877C447.905 204.681 447.561 204.577 447.209 204.577C446.977 204.575 446.746 204.62 446.531 204.708C446.315 204.796 446.119 204.925 445.954 205.089C445.789 205.253 445.658 205.448 445.569 205.663C445.48 205.878 445.433 206.108 445.433 206.341Z" fill="white"/>
<path d="M440.918 208.117C441.898 208.117 442.693 207.322 442.693 206.341C442.693 205.36 441.898 204.565 440.918 204.565C439.937 204.565 439.142 205.36 439.142 206.341C439.142 207.322 439.937 208.117 440.918 208.117Z" fill="white"/>
<path d="M434.626 208.117C435.607 208.117 436.402 207.322 436.402 206.341C436.402 205.36 435.607 204.565 434.626 204.565C433.645 204.565 432.85 205.36 432.85 206.341C432.85 207.322 433.645 208.117 434.626 208.117Z" fill="white"/>
<path d="M454.524 210.41H244.878V210.857H454.524V210.41Z" fill="#407BFF"/>
<path opacity="0.47" d="M275.102 190.042L247.43 344.838H274.819L302.491 190.042H275.102Z" fill="#FAFAFA"/>
<path opacity="0.47" d="M309.17 190.042L281.511 344.838H295.2L322.871 190.042H309.17Z" fill="#FAFAFA"/>
<path opacity="0.4" d="M462.239 190.042L434.567 344.838H441.423L469.083 190.042H462.239Z" fill="white"/>
<path opacity="0.4" d="M450.185 190.042L422.513 344.838H429.369L457.029 190.042H450.185Z" fill="white"/>
<path d="M390.162 419.256H375.779C374.304 419.256 372.889 419.842 371.846 420.885C370.803 421.928 370.217 423.343 370.217 424.818H395.712C395.714 424.088 395.571 423.365 395.293 422.69C395.015 422.016 394.606 421.402 394.091 420.886C393.575 420.369 392.963 419.959 392.288 419.679C391.614 419.4 390.891 419.256 390.162 419.256Z" fill="#407BFF"/>
<path opacity="0.4" d="M390.162 419.256H375.779C374.304 419.256 372.889 419.842 371.846 420.885C370.803 421.928 370.217 423.343 370.217 424.818H395.712C395.714 424.088 395.571 423.365 395.293 422.69C395.015 422.016 394.606 421.402 394.091 420.886C393.575 420.369 392.963 419.959 392.288 419.679C391.614 419.4 390.891 419.256 390.162 419.256Z" fill="black"/>
<path d="M350.977 358.95C350.977 360.09 350.639 361.204 350.006 362.152C349.373 363.099 348.473 363.838 347.42 364.274C346.367 364.71 345.208 364.824 344.091 364.602C342.973 364.38 341.946 363.831 341.14 363.025C340.334 362.219 339.785 361.192 339.563 360.075C339.341 358.957 339.455 357.798 339.891 356.745C340.327 355.692 341.066 354.792 342.013 354.159C342.961 353.526 344.075 353.188 345.215 353.188C346.743 353.188 348.209 353.795 349.289 354.876C350.37 355.956 350.977 357.422 350.977 358.95Z" fill="#407BFF"/>
<path opacity="0.5" d="M350.977 358.95C350.977 360.09 350.639 361.204 350.006 362.152C349.373 363.099 348.473 363.838 347.42 364.274C346.367 364.71 345.208 364.824 344.091 364.602C342.973 364.38 341.946 363.831 341.14 363.025C340.334 362.219 339.785 361.192 339.563 360.075C339.341 358.957 339.455 357.798 339.891 356.745C340.327 355.692 341.066 354.792 342.013 354.159C342.961 353.526 344.075 353.188 345.215 353.188C346.743 353.188 348.209 353.795 349.289 354.876C350.37 355.956 350.977 357.422 350.977 358.95Z" fill="black"/>
<path d="M295.976 404.944C295.164 376.79 295.235 205.106 296.869 191.006L299.092 187.937C299.092 187.937 298.069 190.665 297.822 238.916C297.575 287.167 297.246 397.782 297.516 404.944H295.976Z" fill="#407BFF"/>
<path d="M309.182 300.527C318.59 284.863 328.892 273.726 336.348 267.599C343.804 261.472 324.258 301.256 316.614 316.062C308.97 330.868 299.551 347.238 296.517 361.067C295.929 332.937 299.762 316.191 309.182 300.527Z" fill="#407BFF"/>
<path d="M296.705 192.982C298.633 175.177 296.023 158.725 305.713 137.874C315.403 117.024 322.777 100.654 332.126 93.0451C334.372 91.2106 326.693 127.455 317.767 147.87C311.475 162.276 309.453 172.566 302.773 182.28C301.209 184.538 296.705 192.982 296.705 192.982Z" fill="#407BFF"/>
<path d="M296.658 287.979C298.61 265.999 300.374 244.831 312.992 213.562C316.062 205.941 344.509 152.692 351.93 146.929C355.564 144.095 342.851 179.481 330.432 209.257C321.13 231.601 317.273 237.999 306.912 263.918C302.855 274.184 296.658 287.979 296.658 287.979Z" fill="#407BFF"/>
<path d="M280.1 179.516C269.516 165.181 259.284 155.491 251.77 150.422C244.255 145.354 264.706 180.598 274.537 195.98C284.369 211.362 293.271 224.71 297.34 238.046C295.388 209.975 290.684 193.864 280.1 179.516Z" fill="#407BFF"/>
<path d="M296.658 326.928C294.659 311.64 290.543 293.683 284.663 280.37C278.783 267.058 269.727 246.643 262.53 239.716C260.802 238.046 270.057 277.759 276.007 288.32C281.958 298.88 286.309 308.841 290.049 314.827C291.295 316.767 296.658 326.928 296.658 326.928Z" fill="#407BFF"/>
<path opacity="0.5" d="M295.976 404.944C295.164 376.79 295.235 205.106 296.869 191.006L299.092 187.937C299.092 187.937 298.069 190.665 297.822 238.916C297.575 287.167 297.246 397.782 297.516 404.944H295.976Z" fill="white"/>
<path opacity="0.5" d="M309.182 300.527C318.59 284.863 328.892 273.726 336.348 267.599C343.804 261.472 324.258 301.256 316.614 316.062C308.97 330.868 299.551 347.238 296.517 361.067C295.929 332.937 299.762 316.191 309.182 300.527Z" fill="white"/>
<path opacity="0.5" d="M296.705 192.982C298.633 175.177 296.023 158.725 305.713 137.874C315.403 117.024 322.777 100.654 332.126 93.0451C334.372 91.2106 326.693 127.455 317.767 147.87C311.475 162.276 309.453 172.566 302.773 182.28C301.209 184.538 296.705 192.982 296.705 192.982Z" fill="white"/>
<path opacity="0.5" d="M296.658 287.979C298.61 265.999 300.374 244.831 312.992 213.562C316.062 205.941 344.509 152.692 351.93 146.929C355.564 144.095 342.851 179.481 330.432 209.257C321.13 231.601 317.273 237.999 306.912 263.918C302.855 274.184 296.658 287.979 296.658 287.979Z" fill="white"/>
<path opacity="0.5" d="M280.1 179.516C269.516 165.181 259.284 155.491 251.77 150.422C244.255 145.354 264.706 180.598 274.537 195.98C284.369 211.362 293.271 224.71 297.34 238.046C295.388 209.975 290.684 193.864 280.1 179.516Z" fill="white"/>
<path opacity="0.5" d="M296.658 326.928C294.659 311.64 290.543 293.683 284.663 280.37C278.783 267.058 269.727 246.643 262.53 239.716C260.802 238.046 270.057 277.759 276.007 288.32C281.958 298.88 286.309 308.841 290.049 314.827C291.295 316.767 296.658 326.928 296.658 326.928Z" fill="white"/>
<path d="M319.049 424.818H274.478L271.115 399.205H322.412L319.049 424.818Z" fill="#263238"/>
<path d="M325.728 402.192H267.787L266.129 393.548H327.387L325.728 402.192Z" fill="#263238"/>
<path d="M270.421 207.646H137.827C133.287 207.646 129.607 211.327 129.607 215.867V416.598C129.607 421.138 133.287 424.818 137.827 424.818H270.421C274.961 424.818 278.641 421.138 278.641 416.598V215.867C278.641 211.327 274.961 207.646 270.421 207.646Z" fill="#407BFF"/>
<path opacity="0.6" d="M270.421 207.646H137.827C133.287 207.646 129.607 211.327 129.607 215.867V416.598C129.607 421.138 133.287 424.818 137.827 424.818H270.421C274.961 424.818 278.641 421.138 278.641 416.598V215.867C278.641 211.327 274.961 207.646 270.421 207.646Z" fill="black"/>
<path d="M266.482 207.646H133.888C129.348 207.646 125.667 211.327 125.667 215.867V416.598C125.667 421.138 129.348 424.818 133.888 424.818H266.482C271.022 424.818 274.702 421.138 274.702 416.598V215.867C274.702 211.327 271.022 207.646 266.482 207.646Z" fill="#407BFF"/>
<path opacity="0.3" d="M266.482 207.646H133.888C129.348 207.646 125.667 211.327 125.667 215.867V416.598C125.667 421.138 129.348 424.818 133.888 424.818H266.482C271.022 424.818 274.702 421.138 274.702 416.598V215.867C274.702 211.327 271.022 207.646 266.482 207.646Z" fill="black"/>
<path d="M274.702 217.078H125.667V405.591H274.702V217.078Z" fill="#FAFAFA"/>
<path opacity="0.1" d="M274.702 217.078H125.667V405.591H274.702V217.078Z" fill="#407BFF"/>
<path opacity="0.48" d="M178.505 217.548L144.401 406.061H170.449L204.553 217.548H178.505Z" fill="#FAFAFA"/>
<path opacity="0.48" d="M212.292 217.078L178.188 405.602H191.206L225.31 217.078H212.292Z" fill="#FAFAFA"/>
<path d="M200.179 420.69C203.27 420.69 205.776 418.184 205.776 415.093C205.776 412.001 203.27 409.495 200.179 409.495C197.087 409.495 194.581 412.001 194.581 415.093C194.581 418.184 197.087 420.69 200.179 420.69Z" fill="#407BFF"/>
<path opacity="0.5" d="M200.179 420.69C203.27 420.69 205.776 418.184 205.776 415.093C205.776 412.001 203.27 409.495 200.179 409.495C197.087 409.495 194.581 412.001 194.581 415.093C194.581 418.184 197.087 420.69 200.179 420.69Z" fill="black"/>
<path d="M201.472 211.986C201.472 212.242 201.396 212.492 201.254 212.704C201.112 212.917 200.91 213.083 200.674 213.181C200.437 213.279 200.177 213.304 199.926 213.255C199.675 213.205 199.445 213.081 199.264 212.9C199.083 212.72 198.96 212.489 198.91 212.238C198.86 211.987 198.886 211.727 198.984 211.491C199.082 211.254 199.247 211.052 199.46 210.91C199.673 210.768 199.923 210.692 200.179 210.692C200.522 210.692 200.851 210.828 201.093 211.071C201.336 211.314 201.472 211.643 201.472 211.986Z" fill="#407BFF"/>
<path opacity="0.5" d="M201.472 211.986C201.472 212.242 201.396 212.492 201.254 212.704C201.112 212.917 200.91 213.083 200.674 213.181C200.437 213.279 200.177 213.304 199.926 213.255C199.675 213.205 199.445 213.081 199.264 212.9C199.083 212.72 198.96 212.489 198.91 212.238C198.86 211.987 198.886 211.727 198.984 211.491C199.082 211.254 199.247 211.052 199.46 210.91C199.673 210.768 199.923 210.692 200.179 210.692C200.522 210.692 200.851 210.828 201.093 211.071C201.336 211.314 201.472 211.643 201.472 211.986Z" fill="black"/>
<path d="M386.328 175.224L395.301 173.542C395.444 173.518 395.581 173.463 395.7 173.38C395.82 173.298 395.92 173.19 395.993 173.064C396.066 172.938 396.11 172.797 396.123 172.652C396.135 172.508 396.116 172.362 396.065 172.225L389.009 151.328C388.899 151.026 388.687 150.772 388.41 150.609C388.134 150.446 387.809 150.384 387.492 150.434L378.531 152.104C378.386 152.127 378.248 152.183 378.127 152.266C378.006 152.35 377.906 152.459 377.833 152.586C377.759 152.714 377.715 152.856 377.704 153.002C377.693 153.148 377.714 153.296 377.767 153.433L384.823 174.33C384.929 174.632 385.138 174.887 385.413 175.05C385.688 175.214 386.012 175.275 386.328 175.224Z" fill="#407BFF"/>
<path opacity="0.6" d="M386.328 175.224L395.301 173.542C395.444 173.518 395.581 173.463 395.7 173.38C395.82 173.298 395.92 173.19 395.993 173.064C396.066 172.938 396.11 172.797 396.123 172.652C396.135 172.508 396.116 172.362 396.065 172.225L389.009 151.328C388.899 151.026 388.687 150.772 388.41 150.609C388.134 150.446 387.809 150.384 387.492 150.434L378.531 152.104C378.386 152.127 378.248 152.183 378.127 152.266C378.006 152.35 377.906 152.459 377.833 152.586C377.759 152.714 377.715 152.856 377.704 153.002C377.693 153.148 377.714 153.296 377.767 153.433L384.823 174.33C384.929 174.632 385.138 174.887 385.413 175.05C385.688 175.214 386.012 175.275 386.328 175.224Z" fill="black"/>
<path d="M387.433 175.059L396.394 173.389C396.539 173.366 396.677 173.31 396.798 173.227C396.919 173.143 397.019 173.034 397.093 172.907C397.166 172.78 397.21 172.638 397.221 172.491C397.233 172.345 397.211 172.198 397.159 172.061L390.103 151.163C389.992 150.862 389.781 150.608 389.504 150.445C389.227 150.282 388.903 150.22 388.586 150.269L379.625 151.951C379.48 151.973 379.342 152.027 379.221 152.109C379.101 152.191 379 152.3 378.926 152.426C378.853 152.552 378.809 152.694 378.797 152.84C378.786 152.985 378.807 153.132 378.86 153.268L385.916 174.166C386.027 174.467 386.238 174.721 386.515 174.884C386.791 175.047 387.116 175.109 387.433 175.059Z" fill="#407BFF"/>
<path opacity="0.3" d="M387.433 175.059L396.394 173.389C396.539 173.366 396.677 173.31 396.798 173.227C396.919 173.143 397.019 173.034 397.093 172.907C397.166 172.78 397.21 172.638 397.221 172.491C397.233 172.345 397.211 172.198 397.159 172.061L390.103 151.163C389.992 150.862 389.781 150.608 389.504 150.445C389.227 150.282 388.903 150.22 388.586 150.269L379.625 151.951C379.48 151.973 379.342 152.027 379.221 152.109C379.101 152.191 379 152.3 378.926 152.426C378.853 152.552 378.809 152.694 378.797 152.84C378.786 152.985 378.807 153.132 378.86 153.268L385.916 174.166C386.027 174.467 386.238 174.721 386.515 174.884C386.791 175.047 387.116 175.109 387.433 175.059Z" fill="black"/>
<path d="M385.434 172.743L396.677 170.638L390.35 151.892L379.095 153.997L385.434 172.743Z" fill="#FAFAFA"/>
<path opacity="0.14" d="M385.434 172.743L396.677 170.638L390.35 151.892L379.095 153.997L385.434 172.743Z" fill="#407BFF"/>
<path d="M379.095 162.1L379.977 160.054L388.445 169.567L381.118 170.132L379.095 162.1Z" fill="#E58A7B"/>
<path d="M234.436 88.3176C244.457 88.3176 252.581 80.1935 252.581 70.1719C252.581 60.1503 244.457 52.0262 234.436 52.0262C224.414 52.0262 216.29 60.1503 216.29 70.1719C216.29 80.1935 224.414 88.3176 234.436 88.3176Z" fill="#407BFF"/>
<path d="M234.436 91.728C233.19 91.7289 231.947 91.6227 230.719 91.4105L230.919 90.2345C233.254 90.633 235.64 90.633 237.975 90.2345L238.175 91.4105C236.94 91.6215 235.689 91.7277 234.436 91.728ZM223.699 88.8586C221.526 87.6087 219.587 85.9889 217.972 84.0722L218.877 83.3078C220.401 85.1259 222.232 86.6624 224.287 87.8472L223.699 88.8586ZM245.196 88.8586L244.608 87.8472C246.663 86.6624 248.494 85.1259 250.018 83.3078L250.911 84.0605C249.297 85.9578 247.362 87.5578 245.196 88.788V88.8586ZM214.22 77.616C213.361 75.2568 212.923 72.765 212.927 70.2542H214.103C214.085 72.6219 214.483 74.9744 215.279 77.2044L214.22 77.616ZM254.651 77.616L253.546 77.2162C254.342 74.9862 254.74 72.6337 254.722 70.266H255.521H255.898C255.904 72.7384 255.482 75.1933 254.651 77.5219V77.616ZM215.302 63.3511L214.197 62.9513C215.051 60.5901 216.313 58.397 217.925 56.4715L218.818 57.2242C217.308 59.0183 216.119 61.0591 215.302 63.257V63.3511ZM253.522 63.2335C252.711 61.0123 251.517 58.9506 249.994 57.1418L250.9 56.3774C252.517 58.2917 253.791 60.4722 254.663 62.8219L253.522 63.2335ZM224.216 52.6495L223.628 51.6382C225.807 50.3641 228.197 49.4917 230.684 49.0627L230.884 50.2387C228.542 50.6236 226.285 51.4157 224.216 52.579V52.6495ZM244.537 52.6495C242.483 51.4795 240.237 50.6832 237.905 50.2975L238.105 49.1215C240.587 49.5446 242.975 50.4004 245.161 51.6499L244.537 52.6495Z" fill="#407BFF"/>
<path d="M375.603 161.923H372.075V163.099H375.603V161.923Z" fill="#407BFF"/>
<path d="M365.007 163.099H357.951V161.923H365.007V163.099ZM350.801 162.288C348.465 161.643 346.243 160.639 344.215 159.313L344.862 158.337C346.787 159.589 348.893 160.537 351.107 161.147L350.801 162.288ZM338.841 154.503C337.296 152.641 336.05 150.55 335.148 148.305L336.242 147.87C337.111 149.999 338.301 151.982 339.77 153.75L338.841 154.503ZM333.502 141.273C333.502 140.673 333.502 140.097 333.502 139.462C333.499 137.649 333.704 135.842 334.113 134.076L335.289 134.346C334.903 136.024 334.71 137.74 334.713 139.462C334.713 140.038 334.713 140.638 334.713 141.191L333.502 141.273ZM337.759 127.984L336.748 127.384C337.984 125.304 339.53 123.424 341.334 121.81L342.122 122.692C340.408 124.212 338.937 125.984 337.759 127.949V127.984ZM347.873 118.941L347.39 117.87C349.594 116.875 351.938 116.228 354.341 115.954L354.482 117.13C352.201 117.382 349.972 117.98 347.873 118.905V118.941ZM376.379 116.965H375.603V115.789H376.379C378.425 115.788 380.463 115.511 382.435 114.966L382.753 116.142C380.674 116.692 378.529 116.957 376.379 116.93V116.965ZM368.535 116.965H361.479V115.789H368.535V116.965ZM389.327 113.108L388.68 112.132C390.605 110.872 392.326 109.325 393.784 107.545L394.701 108.286C393.166 110.148 391.353 111.762 389.327 113.072V113.108ZM398.37 102.077L397.276 101.642C398.123 99.5013 398.643 97.2455 398.817 94.9502L399.993 95.0443C399.806 97.4449 399.259 99.8037 398.37 102.042V102.077ZM398.276 88.1177C397.748 85.8775 396.88 83.7318 395.701 81.7555L396.712 81.1558C397.952 83.2338 398.865 85.4908 399.417 87.8472L398.276 88.1177ZM391.326 76.4753C389.608 74.9496 387.669 73.6927 385.575 72.7474L386.046 71.6772C388.254 72.6634 390.296 73.9843 392.102 75.5933L391.326 76.4753ZM378.954 70.9363C378.103 70.8421 377.247 70.795 376.391 70.7952H371.957V69.6192H376.379C377.283 69.6098 378.186 69.6609 379.084 69.7721L378.954 70.9363ZM364.842 70.7952H357.786V69.6192H364.842V70.7952ZM350.73 70.7952H343.674V69.6192H350.73V70.7952ZM336.618 70.7952H329.562V69.6192H336.618V70.7952ZM322.506 70.7952H315.45V69.6192H322.506V70.7952ZM308.394 70.7952H301.338V69.6192H308.394V70.7952ZM294.282 70.7952H287.226V69.6192H294.282V70.7952ZM280.17 70.7952H273.114V69.6192H280.17V70.7952Z" fill="#407BFF"/>
<path d="M265.847 69.5839H262.319V70.7599H265.847V69.5839Z" fill="#407BFF"/>
<path d="M234.93 95.5147H233.942V98.4665H234.93V95.5147Z" fill="#407BFF"/>
<path d="M111.72 290.801H110.744V284.921H111.72V290.801ZM111.72 279.041H110.744V273.161H111.72V279.041ZM219.054 276.019C217.903 276.018 216.755 275.892 215.631 275.643L215.843 274.69C217.715 275.09 219.645 275.138 221.535 274.831L221.688 275.796C220.808 275.923 219.919 275.978 219.03 275.96L219.054 276.019ZM158.442 276.019L158.384 275.031C160.292 274.913 162.161 274.43 163.887 273.608L164.311 274.49C162.457 275.342 160.457 275.829 158.419 275.925L158.442 276.019ZM152.41 275.184C150.475 274.541 148.682 273.531 147.129 272.209L147.764 271.456C149.22 272.699 150.901 273.649 152.715 274.255L152.41 275.184ZM227.344 273.643L226.827 272.808C228.455 271.805 229.875 270.5 231.013 268.963L231.813 269.551C230.595 271.175 229.079 272.553 227.344 273.608V273.643ZM210.045 273.208C208.365 272.059 206.919 270.598 205.788 268.904L206.611 268.351C207.672 269.945 209.029 271.318 210.61 272.397L210.045 273.208ZM169.144 270.856L168.427 270.198C169.716 268.783 170.722 267.135 171.39 265.341L172.319 265.682C171.595 267.57 170.518 269.302 169.144 270.786V270.856ZM143.343 267.516C142.39 265.712 141.799 263.738 141.602 261.707L142.578 261.613C142.765 263.517 143.32 265.366 144.213 267.058L143.343 267.516ZM111.72 267.164H110.744V261.284H111.72V267.164ZM234.447 264.047L233.495 263.8C233.804 262.578 233.962 261.322 233.965 260.061V258.05H234.953V260.061C234.942 261.406 234.765 262.745 234.424 264.047H234.447ZM203.448 263.271C203.232 262.215 203.122 261.139 203.119 260.061V257.285H204.107V260.061C204.108 261.072 204.211 262.08 204.412 263.071L203.448 263.271ZM173.295 259.649H172.319V253.769H173.295V259.649ZM142.496 255.686H141.508V249.806H142.496V255.686ZM111.72 255.345H110.744V249.465H111.72V255.345ZM234.953 252.146H233.965V246.266H234.953V252.146ZM204.142 251.37H203.154V247.207C203.158 246.645 203.127 246.083 203.06 245.525L204.036 245.408C204.106 246.005 204.142 246.606 204.142 247.207V251.37ZM173.331 247.842H172.355V247.219C172.351 245.396 172.662 243.586 173.272 241.868L174.201 242.197C173.623 243.808 173.329 245.507 173.331 247.219V247.842ZM141.202 244.008C140.791 242.137 140.02 240.364 138.933 238.787L139.744 238.234C140.882 239.918 141.681 241.807 142.096 243.797L141.202 244.008ZM112.143 243.679L111.191 243.444C111.673 241.462 112.536 239.593 113.731 237.94L114.519 238.516C113.4 240.066 112.586 241.814 112.12 243.667L112.143 243.679ZM234.953 240.327H233.965V234.447H234.953V240.327ZM201.355 240.116C200.444 238.432 199.218 236.939 197.744 235.717L198.368 234.965C199.944 236.27 201.253 237.867 202.225 239.669L201.355 240.116ZM177.106 237.317L176.365 236.658C177.72 235.132 179.357 233.883 181.186 232.977L181.621 233.859C179.898 234.701 178.356 235.871 177.082 237.305L177.106 237.317ZM134.887 234.8C133.298 233.737 131.516 232.994 129.642 232.613L129.842 231.648C131.839 232.062 133.737 232.861 135.428 234L134.887 234.8ZM118.658 234.624L118.141 233.789C119.859 232.688 121.777 231.937 123.786 231.578L123.962 232.554C122.069 232.886 120.259 233.585 118.635 234.612L118.658 234.624ZM192.746 233.001C191.294 232.54 189.778 232.306 188.254 232.307C187.819 232.307 187.478 232.307 187.078 232.307L187.008 231.319C187.407 231.319 187.819 231.319 188.184 231.319C189.81 231.319 191.428 231.565 192.982 232.048L192.746 233.001ZM234.953 228.509H233.965V222.629H234.953V228.509ZM234.953 216.69H233.965V210.81H234.953V216.69ZM234.953 204.871H233.965V198.991H234.953V204.871ZM234.953 193.111H233.965V187.231H234.953V193.111ZM234.953 181.292H233.965V175.412H234.953V181.292ZM234.953 169.462H233.965V163.582H234.953V169.462ZM234.953 157.702H233.965V151.822H234.953V157.702ZM234.953 145.883H233.965V140.003H234.953V145.883ZM234.953 134.064H233.965V128.184H234.953V134.064ZM234.953 122.304H233.965V116.424H234.953V122.304ZM234.953 110.485H233.965V104.605H234.953V110.485Z" fill="#407BFF"/>
<path d="M111.708 296.834H110.72V299.786H111.708V296.834Z" fill="#407BFF"/>
<path d="M232.213 79.0154C231.746 79.0112 231.299 78.8257 230.966 78.498L224.804 72.3357C224.477 72.0035 224.293 71.5557 224.293 71.0892C224.293 70.6227 224.477 70.1749 224.804 69.8426C224.967 69.6776 225.161 69.5466 225.375 69.4572C225.589 69.3678 225.819 69.3218 226.051 69.3218C226.283 69.3218 226.512 69.3678 226.726 69.4572C226.94 69.5466 227.134 69.6776 227.297 69.8426L232.213 74.7583L241.562 65.4091C241.897 65.0975 242.339 64.9279 242.796 64.9359C243.253 64.944 243.689 65.1291 244.012 65.4523C244.335 65.7755 244.52 66.2115 244.528 66.6685C244.537 67.1255 244.367 67.5678 244.055 67.9022L233.471 78.4862C233.308 78.6541 233.112 78.7875 232.896 78.8784C232.68 78.9693 232.447 79.0159 232.213 79.0154Z" fill="white"/>
<path d="M453.348 114.201C452.172 120.081 449.608 131.841 453.701 135.781C453.701 135.781 452.101 141.661 441.247 141.661C429.299 141.661 435.532 135.781 435.532 135.781C442.058 134.229 441.882 129.395 440.753 124.856L453.348 114.201Z" fill="#E58A7B"/>
<path d="M429.569 137.792C429.569 136.91 430.91 136.004 432.862 135.299C433.909 134.911 434.932 133.441 436.519 133.17C437.695 132.97 439.212 133.982 440.718 133.876C441.976 133.782 443.293 132.559 444.751 132.547C446.21 132.535 447.386 133.723 448.82 133.805C449.714 133.805 450.608 132.723 451.361 132.794C452.113 132.864 452.925 134.146 453.642 134.276C454.595 134.44 455.665 133.488 456.311 133.699C457.346 134.029 457.487 135.428 457.946 135.804C459.263 136.875 460.298 137.886 459.122 138.074C456.217 138.533 456.1 136.898 453.16 136.898C450.22 136.898 450.22 138.074 447.28 138.015C444.34 137.957 444.352 136.839 441.4 136.839C438.448 136.839 438.507 137.651 435.52 137.957C433.544 138.288 431.523 138.232 429.569 137.792Z" fill="#407BFF"/>
<g opacity="0.6">
<path d="M429.569 137.792C429.569 136.91 430.91 136.004 432.862 135.299C433.909 134.911 434.932 133.441 436.519 133.17C437.695 132.97 439.212 133.982 440.718 133.876C441.976 133.782 443.293 132.559 444.751 132.547C446.21 132.535 447.386 133.723 448.82 133.805C449.714 133.805 450.608 132.723 451.361 132.794C452.113 132.864 452.925 134.146 453.642 134.276C454.595 134.44 455.665 133.488 456.311 133.699C457.346 134.029 457.487 135.428 457.946 135.804C459.263 136.875 460.298 137.886 459.122 138.074C456.217 138.533 456.1 136.898 453.16 136.898C450.22 136.898 450.22 138.074 447.28 138.015C444.34 137.957 444.352 136.839 441.4 136.839C438.448 136.839 438.507 137.651 435.52 137.957C433.544 138.288 431.523 138.232 429.569 137.792Z" fill="black"/>
</g>
<path d="M474.704 148.446C476.233 151.68 477.432 154.773 478.644 157.996C479.855 161.218 480.831 164.464 481.772 167.745C482.725 171.058 483.51 174.418 484.124 177.811C484.406 179.516 484.7 181.222 484.888 182.974C485.006 183.832 485.112 184.703 485.171 185.585L485.37 188.289C485.422 190.526 485.022 192.75 484.194 194.828C483.519 196.572 482.713 198.262 481.784 199.885C480.031 202.905 478.066 205.798 475.904 208.54C471.717 213.854 467.124 218.836 462.168 223.44L458.499 220.053C460.439 217.489 462.427 214.855 464.285 212.197C466.143 209.54 468.001 206.882 469.683 204.165C471.368 201.516 472.892 198.767 474.245 195.933C474.868 194.637 475.395 193.297 475.821 191.923C476.167 190.905 476.326 189.834 476.292 188.76L475.998 186.537C475.915 185.773 475.786 185.008 475.633 184.185C475.386 182.656 475.045 181.116 474.704 179.587C474.363 178.058 473.975 176.529 473.528 175.001C473.081 173.472 472.681 171.943 472.211 170.426C471.282 167.392 470.212 164.37 469.106 161.382C468.001 158.395 466.754 155.361 465.578 152.574L474.704 148.446Z" fill="#E58A7B"/>
<path d="M470.694 138.027C474.786 138.921 479.149 153.644 479.149 153.644L463.038 163.923C463.038 163.923 457.981 152.163 459.934 147.035C461.98 141.743 465.861 136.969 470.694 138.027Z" fill="#407BFF"/>
<path opacity="0.6" d="M470.694 138.027C474.786 138.921 479.149 153.644 479.149 153.644L463.038 163.923C463.038 163.923 457.981 152.163 459.934 147.035C461.98 141.743 465.861 136.969 470.694 138.027Z" fill="white"/>
<path opacity="0.28" d="M468.507 143.037L463.003 163.829V163.923L469.447 159.807L468.507 143.037Z" fill="#407BFF"/>
<path d="M418.879 138.309C418.879 138.309 414.175 139.968 423.583 197.756H463.567C462.897 181.48 462.874 171.437 470.623 138.027C465.02 136.871 459.341 136.12 453.63 135.781C447.581 135.357 441.51 135.357 435.461 135.781C427.735 136.498 418.879 138.309 418.879 138.309Z" fill="#407BFF"/>
<path opacity="0.6" d="M418.879 138.309C418.879 138.309 414.175 139.968 423.583 197.756H463.567C462.897 181.48 462.874 171.437 470.623 138.027C465.02 136.871 459.341 136.12 453.63 135.781C447.581 135.357 441.51 135.357 435.461 135.781C427.735 136.498 418.879 138.309 418.879 138.309Z" fill="white"/>
<path d="M460.404 218.736L450.878 215.867L454.853 225.063C454.853 225.063 461.145 225.674 463.415 222.264L460.404 218.736Z" fill="#E58A7B"/>
<path d="M443.164 218.901L446.903 226.415L454.853 225.086L450.878 215.89L443.164 218.901Z" fill="#E58A7B"/>
<path d="M485.606 419.515H475.763L472.587 396.7H482.442L485.606 419.515Z" fill="#E58A7B"/>
<path d="M440.847 419.515H431.004L430.345 396.7H440.189L440.847 419.515Z" fill="#E58A7B"/>
<path d="M430.345 396.712L430.686 408.46H440.541L440.2 396.712H430.345Z" fill="#CF6F64"/>
<path d="M482.442 396.712H472.587L474.222 408.46H484.077L482.442 396.712Z" fill="#CF6F64"/>
<path d="M434.156 197.756C434.156 197.756 439.871 265.376 445.81 303.479C450.596 334.255 471.846 406.19 471.846 406.19H485.276C485.276 406.19 474.21 336.712 471.776 306.23C465.625 229.202 476.409 215.573 463.603 197.709L434.156 197.756Z" fill="#407BFF"/>
<path opacity="0.6" d="M434.156 197.756C434.156 197.756 439.871 265.376 445.81 303.479C450.596 334.255 471.846 406.19 471.846 406.19H485.276C485.276 406.19 474.21 336.712 471.776 306.23C465.625 229.202 476.409 215.573 463.603 197.709L434.156 197.756Z" fill="black"/>
<path opacity="0.4" d="M446.363 224.357C446.363 224.357 440.859 241.503 440.941 266.235C441.894 274.596 442.905 282.899 443.94 290.59C447.092 283.416 452.889 262.507 446.363 224.357Z" fill="black"/>
<path d="M423.595 197.756C423.595 197.756 415.822 273.643 416.469 303.678C417.139 334.925 428.593 406.19 428.593 406.19H441.906C441.906 406.19 439.8 336.806 440.976 306.066C442.258 272.609 452.889 197.756 452.889 197.756H423.595Z" fill="#407BFF"/>
<path opacity="0.6" d="M423.595 197.756C423.595 197.756 415.822 273.643 416.469 303.678C417.139 334.925 428.593 406.19 428.593 406.19H441.906C441.906 406.19 439.8 336.806 440.976 306.066C442.258 272.609 452.889 197.756 452.889 197.756H423.595Z" fill="black"/>
<path d="M471.776 420.091C471.109 420.147 470.443 419.968 469.894 419.585C469.731 419.426 469.609 419.229 469.541 419.011C469.474 418.793 469.462 418.562 469.506 418.339C469.52 418.197 469.571 418.062 469.653 417.946C469.736 417.831 469.847 417.739 469.977 417.68C471.153 417.174 474.116 419.091 474.445 419.315C474.484 419.339 474.515 419.375 474.533 419.416C474.552 419.458 474.558 419.505 474.551 419.55C474.545 419.596 474.525 419.638 474.493 419.672C474.461 419.706 474.42 419.729 474.375 419.738C473.524 419.95 472.653 420.069 471.776 420.091ZM470.459 418.056C470.357 418.051 470.256 418.071 470.165 418.115C470.094 418.115 470 418.209 469.977 418.409C469.939 418.555 469.941 418.708 469.983 418.853C470.024 418.997 470.103 419.128 470.212 419.232C470.706 419.691 471.999 419.75 473.74 419.409C472.753 418.733 471.635 418.273 470.459 418.056Z" fill="#407BFF"/>
<path d="M474.316 419.75C474.282 419.76 474.245 419.76 474.21 419.75C473.269 419.22 471.482 417.092 471.694 415.986C471.731 415.804 471.829 415.639 471.972 415.519C472.115 415.4 472.295 415.332 472.482 415.328C472.659 415.302 472.841 415.317 473.012 415.372C473.184 415.427 473.34 415.52 473.469 415.645C474.54 416.586 474.551 419.432 474.551 419.55C474.552 419.591 474.541 419.631 474.52 419.666C474.5 419.701 474.47 419.73 474.434 419.75C474.395 419.761 474.354 419.761 474.316 419.75ZM472.646 415.751H472.54C472.246 415.751 472.176 415.916 472.152 416.022C472.023 416.704 473.14 418.303 474.069 419.044C474.097 417.944 473.78 416.863 473.164 415.951C473.023 415.821 472.838 415.75 472.646 415.751Z" fill="#407BFF"/>
<path d="M426.959 420.091C426.13 420.157 425.302 419.946 424.607 419.491C424.444 419.345 424.322 419.161 424.25 418.956C424.178 418.75 424.159 418.53 424.195 418.315C424.2 418.186 424.238 418.061 424.306 417.952C424.374 417.843 424.47 417.753 424.583 417.692C425.759 417.033 429.722 419.044 430.157 419.267C430.202 419.289 430.239 419.325 430.262 419.37C430.286 419.414 430.294 419.465 430.287 419.514C430.28 419.562 430.257 419.606 430.224 419.64C430.19 419.673 430.146 419.696 430.098 419.703C429.066 419.93 428.015 420.06 426.959 420.091ZM425.206 418.056C425.057 418.048 424.907 418.076 424.771 418.138C424.726 418.165 424.688 418.202 424.661 418.248C424.634 418.293 424.619 418.345 424.618 418.397C424.6 418.533 424.615 418.672 424.662 418.801C424.709 418.93 424.787 419.046 424.889 419.138C425.489 419.679 427.111 419.773 429.287 419.409C428.014 418.729 426.634 418.271 425.206 418.056Z" fill="#407BFF"/>
<path d="M430.016 419.75H429.922C428.746 419.22 426.394 417.092 426.606 415.975C426.606 415.716 426.841 415.387 427.488 415.316C427.72 415.293 427.955 415.318 428.177 415.389C428.399 415.459 428.605 415.575 428.781 415.728C430.016 416.751 430.24 419.409 430.251 419.514C430.254 419.555 430.247 419.595 430.231 419.632C430.214 419.669 430.189 419.701 430.157 419.726C430.114 419.749 430.065 419.757 430.016 419.75ZM427.664 415.751H427.523C427.1 415.751 427.064 415.963 427.053 416.022C426.947 416.692 428.523 418.374 429.722 419.079C429.624 417.963 429.184 416.904 428.464 416.045C428.244 415.858 427.965 415.754 427.676 415.751H427.664Z" fill="#407BFF"/>
<path d="M429.675 103.841C429.599 103.849 429.523 103.839 429.451 103.813C429.38 103.786 429.316 103.743 429.264 103.688C428.886 103.237 428.406 102.884 427.864 102.657C427.322 102.429 426.733 102.335 426.147 102.383C426.024 102.399 425.899 102.367 425.8 102.292C425.701 102.217 425.635 102.106 425.618 101.983C425.604 101.862 425.636 101.74 425.708 101.642C425.78 101.544 425.886 101.476 426.006 101.454C426.745 101.392 427.488 101.505 428.175 101.785C428.862 102.065 429.472 102.504 429.957 103.065C430.041 103.154 430.087 103.272 430.087 103.394C430.087 103.516 430.041 103.634 429.957 103.723C429.877 103.789 429.779 103.83 429.675 103.841Z" fill="#263238"/>
<path d="M427.629 109.686C427.187 111.58 426.487 113.404 425.547 115.107C425.989 115.337 426.476 115.468 426.974 115.49C427.471 115.512 427.968 115.426 428.429 115.236L427.629 109.686Z" fill="#DF5753"/>
<path d="M428.146 108.192C428.252 108.98 427.935 109.674 427.417 109.744C426.9 109.815 426.394 109.239 426.241 108.463C426.088 107.686 426.453 106.969 426.97 106.898C427.488 106.828 428.064 107.451 428.146 108.192Z" fill="#263238"/>
<path d="M427.241 107.016L425.277 106.746C425.277 106.746 426.453 108.016 427.241 107.016Z" fill="#263238"/>
<path d="M475.104 418.374H486.17C486.36 418.369 486.544 418.436 486.687 418.559C486.831 418.683 486.923 418.856 486.946 419.044L488.216 427.805C488.24 428.027 488.216 428.251 488.146 428.463C488.077 428.675 487.964 428.87 487.814 429.036C487.664 429.201 487.481 429.333 487.277 429.423C487.073 429.513 486.852 429.559 486.629 429.557C482.772 429.487 480.913 429.263 476.045 429.263C473.058 429.263 468.683 429.569 464.544 429.569C460.404 429.569 460.192 425.477 461.909 425.112C469.636 423.454 470.847 421.161 473.458 418.973C473.918 418.585 474.502 418.373 475.104 418.374Z" fill="#263238"/>
<path d="M430.663 418.374H441.729C441.919 418.372 442.104 418.438 442.249 418.562C442.393 418.685 442.489 418.856 442.517 419.044L443.775 427.805C443.798 428.026 443.775 428.25 443.706 428.461C443.638 428.672 443.525 428.866 443.377 429.032C443.228 429.197 443.047 429.329 442.844 429.419C442.641 429.51 442.422 429.557 442.2 429.558C438.342 429.487 436.484 429.264 431.616 429.264C428.617 429.264 422.431 429.569 418.291 429.569C414.152 429.569 413.94 425.477 415.657 425.112C423.372 423.454 426.418 421.161 429.017 418.974C429.479 418.589 430.061 418.377 430.663 418.374Z" fill="#263238"/>
<path opacity="0.28" d="M417.727 147.647V147.882C417.845 154.456 418.75 165.522 421.478 184.126L427.053 162.288L417.727 147.647Z" fill="#407BFF"/>
<path d="M425.641 151.022C424.536 156.608 423.289 162.076 421.808 167.568C420.326 173.06 418.821 178.517 416.868 184.032L416.104 186.09L415.269 188.16C415.081 188.65 414.857 189.126 414.599 189.583C414.275 190.192 413.88 190.76 413.423 191.276C412.356 192.45 410.957 193.27 409.413 193.628C408.12 193.923 406.777 193.923 405.485 193.628C404.499 193.425 403.541 193.11 402.627 192.688C401.111 191.977 399.676 191.106 398.346 190.089C395.97 188.259 393.759 186.224 391.737 184.009C390.726 182.95 389.785 181.845 388.868 180.728C387.951 179.61 387.069 178.493 386.198 177.258L389.926 173.954C393.881 177.525 398.151 180.729 402.686 183.527C403.665 184.096 404.697 184.568 405.767 184.938C406.673 185.279 407.484 185.185 407.166 185.126C406.975 185.152 406.794 185.225 406.637 185.338L406.802 184.832L407.425 182.974L408.013 181.057C409.542 175.894 410.847 170.473 412.141 165.157L415.822 148.976L425.641 151.022Z" fill="#E58A7B"/>
<path d="M386.504 177.752L381.118 170.132L388.445 169.567C388.445 169.567 392.584 174.342 391.126 178.176L386.504 177.752Z" fill="#E58A7B"/>
<path d="M386.057 168.168L387.61 167.215L388.327 163.605L389.515 165.087L390.397 173.566L386.057 168.168Z" fill="#E58A7B"/>
<path d="M454.195 101.748C454.994 111.485 455.535 115.589 451.372 121.257C445.104 129.76 432.956 128.607 429.275 119.293C425.947 110.909 425.206 96.3849 434.12 91.187C436.077 90.0299 438.298 89.3929 440.571 89.3364C442.843 89.2799 445.093 89.806 447.105 90.8644C449.117 91.9229 450.825 93.4786 452.066 95.3836C453.307 97.2885 454.04 99.4793 454.195 101.748Z" fill="#E58A7B"/>
<path d="M432.427 90.0933C430.435 90.9306 428.804 92.4449 427.82 94.3687C426.837 96.2925 426.565 98.502 427.053 100.607C427.053 100.607 434.708 97.3022 435.014 109.568C435.238 118.423 429.134 130.371 429.134 130.371C429.134 130.371 443.329 133.311 463.756 127.055C472.446 124.397 468.53 72.2299 432.427 90.0933Z" fill="#263238"/>
<path d="M431.698 95.5147C430.31 98.8545 430.675 105.464 436.143 104.758C441.612 104.052 440.012 98.537 440.012 98.537L431.698 95.5147Z" fill="#263238"/>
<path d="M437.79 108.709C437.846 110.6 437.158 112.437 435.873 113.825C434.156 115.636 432.004 114.413 431.416 112.108C430.875 110.05 431.122 106.604 433.368 105.64C433.863 105.438 434.401 105.363 434.932 105.422C435.464 105.48 435.972 105.67 436.411 105.975C436.851 106.28 437.207 106.69 437.447 107.167C437.688 107.645 437.806 108.175 437.79 108.709Z" fill="#E58A7B"/>
<path d="M486.276 406.626H470.929L469.295 401.275L486.805 401.686L486.276 406.626Z" fill="#407BFF"/>
<path d="M458.758 199.92H459.816C460.039 199.92 460.204 199.814 460.181 199.673L459.675 194.969C459.675 194.84 459.475 194.722 459.251 194.722H458.17C457.958 194.722 457.793 194.84 457.805 194.969L458.311 199.673C458.358 199.838 458.546 199.92 458.758 199.92Z" fill="#407BFF"/>
<path d="M432.462 199.92H433.544C433.756 199.92 433.921 199.814 433.909 199.673L433.403 194.969C433.403 194.84 433.191 194.722 432.98 194.722H431.898C431.674 194.722 431.51 194.84 431.533 194.969L432.039 199.673C432.051 199.838 432.239 199.92 432.462 199.92Z" fill="#407BFF"/>
<path d="M442.929 406.626H427.57L426.465 402.051L443.505 401.275L442.929 406.626Z" fill="#407BFF"/>
<path d="M464.203 195.416L466.002 198.944C466.143 199.226 465.814 199.508 465.355 199.508H423.36C422.995 199.508 422.701 199.332 422.678 199.109L422.313 195.581C422.313 195.334 422.607 195.122 422.995 195.122H463.509C463.64 195.104 463.774 195.122 463.896 195.174C464.018 195.226 464.124 195.309 464.203 195.416Z" fill="#407BFF"/>
<path opacity="0.1" d="M464.203 195.416L466.002 198.944C466.143 199.226 465.814 199.508 465.355 199.508H423.36C422.995 199.508 422.701 199.332 422.678 199.109L422.313 195.581C422.313 195.334 422.607 195.122 422.995 195.122H463.509C463.64 195.104 463.774 195.122 463.896 195.174C464.018 195.226 464.124 195.309 464.203 195.416Z" fill="black"/>
<path opacity="0.6" d="M458.758 199.92H459.816C460.039 199.92 460.204 199.814 460.181 199.673L459.675 194.969C459.675 194.84 459.475 194.722 459.251 194.722H458.17C457.958 194.722 457.793 194.84 457.805 194.969L458.311 199.673C458.358 199.838 458.546 199.92 458.758 199.92Z" fill="black"/>
<path opacity="0.6" d="M432.462 199.92H433.544C433.756 199.92 433.921 199.814 433.909 199.673L433.403 194.969C433.403 194.84 433.191 194.722 432.98 194.722H431.898C431.674 194.722 431.51 194.84 431.533 194.969L432.039 199.673C432.051 199.838 432.239 199.92 432.462 199.92Z" fill="black"/>
<path d="M418.879 138.309C414.822 139.344 411.988 156.055 411.988 156.055L427.652 166.698C427.652 166.698 433.944 146.8 430.781 142.296C427.523 137.686 424.806 136.804 418.879 138.309Z" fill="#407BFF"/>
<path opacity="0.6" d="M418.879 138.309C414.822 139.344 411.988 156.055 411.988 156.055L427.652 166.698C427.652 166.698 433.944 146.8 430.781 142.296C427.523 137.686 424.806 136.804 418.879 138.309Z" fill="white"/>
<path d="M196.698 353.776C196.704 353.737 196.704 353.697 196.698 353.658C197.027 351.765 197.309 349.86 197.544 347.931C200.873 351.636 203.766 352.577 205.835 352.577C206.055 352.589 206.274 352.589 206.494 352.577C210.551 352.177 213.973 348.202 215.667 341.993C215.7 341.87 215.707 341.741 215.687 341.615C215.666 341.49 215.619 341.37 215.549 341.263C215.403 341.04 215.182 340.878 214.926 340.805C212.051 340.018 209.039 339.879 206.104 340.398C203.17 340.917 200.387 342.08 197.956 343.804C198.097 341.993 198.18 340.181 198.203 338.359C198.859 338.474 199.524 338.533 200.19 338.535C206.894 338.535 211.045 332.573 211.245 332.279C211.32 332.165 211.366 332.035 211.378 331.9C211.39 331.764 211.369 331.628 211.315 331.503C211.261 331.366 211.178 331.241 211.073 331.138C210.968 331.035 210.842 330.955 210.704 330.903C206.517 329.327 203.119 329.186 200.614 330.503C199.02 331.37 197.795 332.787 197.168 334.49C195.397 330.63 192.713 327.26 189.349 324.668C185.985 322.076 182.042 320.342 177.858 319.613C177.739 319.585 177.614 319.585 177.495 319.614C177.375 319.644 177.264 319.701 177.171 319.781C177.078 319.862 177.006 319.963 176.96 320.077C176.913 320.191 176.895 320.314 176.906 320.436C177.329 326.516 178.458 333.937 183.468 337.488C185.472 338.862 187.86 339.566 190.289 339.499C192.366 339.454 194.427 339.126 196.416 338.523C196.311 342.857 195.918 347.178 195.24 351.459C192.452 348.296 185.361 341.263 175.683 338.841C175.575 338.807 175.461 338.798 175.35 338.813C175.238 338.827 175.131 338.866 175.036 338.927C174.941 338.987 174.86 339.068 174.799 339.162C174.738 339.257 174.698 339.364 174.683 339.476C173.966 344.709 175.212 348.954 178.27 351.753C180.81 354.105 184.456 355.281 188.854 355.281C190.805 355.263 192.751 355.059 194.663 354.67C194.005 358.257 193.193 361.726 192.311 365.113C189.265 362.69 180.457 356.563 172.061 359.115C171.95 359.151 171.848 359.213 171.765 359.294C171.681 359.376 171.617 359.475 171.578 359.585C171.538 359.703 171.524 359.828 171.536 359.952C171.548 360.076 171.587 360.195 171.649 360.303C174.754 366.089 177.858 369.299 181.398 370.416C182.32 370.703 183.279 370.85 184.244 370.852C186.741 370.748 189.17 370.007 191.3 368.699C189.971 373.145 188.513 377.284 187.078 380.977C184.679 378.737 181.758 377.133 178.58 376.311C175.402 375.489 172.069 375.476 168.885 376.273C168.785 376.295 168.689 376.337 168.605 376.397C168.522 376.456 168.45 376.533 168.397 376.62C168.343 376.708 168.307 376.806 168.292 376.908C168.277 377.01 168.283 377.114 168.309 377.214C168.802 379.12 169.732 380.886 171.026 382.37C172.321 383.854 173.943 385.016 175.765 385.763C177.096 386.314 178.523 386.598 179.963 386.598C181.869 386.583 183.739 386.081 185.396 385.14C183.521 389.721 181.405 394.2 179.058 398.558C178.958 398.775 178.942 399.022 179.014 399.25C179.086 399.478 179.24 399.672 179.446 399.793C179.6 399.893 179.78 399.946 179.963 399.946C180.1 399.95 180.236 399.917 180.356 399.851C180.476 399.785 180.576 399.688 180.645 399.569C183.492 394.234 186.024 388.736 188.231 383.105C188.276 383.016 188.312 382.921 188.336 382.823C188.775 381.718 189.211 380.577 189.642 379.401C192.476 382.67 195.922 384.481 199.379 384.481C199.755 384.481 200.12 384.481 200.496 384.481C202.413 384.29 204.223 383.509 205.676 382.245C207.13 380.981 208.155 379.297 208.611 377.425C208.644 377.214 208.609 376.998 208.512 376.808C208.415 376.618 208.26 376.464 208.07 376.367C205.477 374.914 202.577 374.095 199.607 373.979C196.636 373.862 193.681 374.451 190.982 375.697C191.911 373.004 192.817 370.146 193.652 367.182C193.726 367.062 193.767 366.924 193.77 366.783C193.993 365.948 194.228 365.113 194.44 364.254C197.838 367.947 200.978 369.758 204.001 369.758C207.67 369.758 211.057 367.041 214.314 361.526C214.402 361.321 214.417 361.091 214.354 360.877C214.292 360.662 214.157 360.476 213.973 360.35C207.141 355.646 198.967 358.856 195.322 360.738C195.839 358.535 196.294 356.293 196.686 354.011L196.698 353.776Z" fill="#407BFF"/>
<path opacity="0.3" d="M196.698 353.776C196.704 353.737 196.704 353.697 196.698 353.658C197.027 351.765 197.309 349.86 197.544 347.931C200.873 351.636 203.766 352.577 205.835 352.577C206.055 352.589 206.274 352.589 206.494 352.577C210.551 352.177 213.973 348.202 215.667 341.993C215.7 341.87 215.707 341.741 215.687 341.615C215.666 341.49 215.619 341.37 215.549 341.263C215.403 341.04 215.182 340.878 214.926 340.805C212.051 340.018 209.039 339.879 206.104 340.398C203.17 340.917 200.387 342.08 197.956 343.804C198.097 341.993 198.18 340.181 198.203 338.359C198.859 338.474 199.524 338.533 200.19 338.535C206.894 338.535 211.045 332.573 211.245 332.279C211.32 332.165 211.366 332.035 211.378 331.9C211.39 331.764 211.369 331.628 211.315 331.503C211.261 331.366 211.178 331.241 211.073 331.138C210.968 331.035 210.842 330.955 210.704 330.903C206.517 329.327 203.119 329.186 200.614 330.503C199.02 331.37 197.795 332.787 197.168 334.49C195.397 330.63 192.713 327.26 189.349 324.668C185.985 322.076 182.042 320.342 177.858 319.613C177.739 319.585 177.614 319.585 177.495 319.614C177.375 319.644 177.264 319.701 177.171 319.781C177.078 319.862 177.006 319.963 176.96 320.077C176.913 320.191 176.895 320.314 176.906 320.436C177.329 326.516 178.458 333.937 183.468 337.488C185.472 338.862 187.86 339.566 190.289 339.499C192.366 339.454 194.427 339.126 196.416 338.523C196.311 342.857 195.918 347.178 195.24 351.459C192.452 348.296 185.361 341.263 175.683 338.841C175.575 338.807 175.461 338.798 175.35 338.813C175.238 338.827 175.131 338.866 175.036 338.927C174.941 338.987 174.86 339.068 174.799 339.162C174.738 339.257 174.698 339.364 174.683 339.476C173.966 344.709 175.212 348.954 178.27 351.753C180.81 354.105 184.456 355.281 188.854 355.281C190.805 355.263 192.751 355.059 194.663 354.67C194.005 358.257 193.193 361.726 192.311 365.113C189.265 362.69 180.457 356.563 172.061 359.115C171.95 359.151 171.848 359.213 171.765 359.294C171.681 359.376 171.617 359.475 171.578 359.585C171.538 359.703 171.524 359.828 171.536 359.952C171.548 360.076 171.587 360.195 171.649 360.303C174.754 366.089 177.858 369.299 181.398 370.416C182.32 370.703 183.279 370.85 184.244 370.852C186.741 370.748 189.17 370.007 191.3 368.699C189.971 373.145 188.513 377.284 187.078 380.977C184.679 378.737 181.758 377.133 178.58 376.311C175.402 375.489 172.069 375.476 168.885 376.273C168.785 376.295 168.689 376.337 168.605 376.397C168.522 376.456 168.45 376.533 168.397 376.62C168.343 376.708 168.307 376.806 168.292 376.908C168.277 377.01 168.283 377.114 168.309 377.214C168.802 379.12 169.732 380.886 171.026 382.37C172.321 383.854 173.943 385.016 175.765 385.763C177.096 386.314 178.523 386.598 179.963 386.598C181.869 386.583 183.739 386.081 185.396 385.14C183.521 389.721 181.405 394.2 179.058 398.558C178.958 398.775 178.942 399.022 179.014 399.25C179.086 399.478 179.24 399.672 179.446 399.793C179.6 399.893 179.78 399.946 179.963 399.946C180.1 399.95 180.236 399.917 180.356 399.851C180.476 399.785 180.576 399.688 180.645 399.569C183.492 394.234 186.024 388.736 188.231 383.105C188.276 383.016 188.312 382.921 188.336 382.823C188.775 381.718 189.211 380.577 189.642 379.401C192.476 382.67 195.922 384.481 199.379 384.481C199.755 384.481 200.12 384.481 200.496 384.481C202.413 384.29 204.223 383.509 205.676 382.245C207.13 380.981 208.155 379.297 208.611 377.425C208.644 377.214 208.609 376.998 208.512 376.808C208.415 376.618 208.26 376.464 208.07 376.367C205.477 374.914 202.577 374.095 199.607 373.979C196.636 373.862 193.681 374.451 190.982 375.697C191.911 373.004 192.817 370.146 193.652 367.182C193.726 367.062 193.767 366.924 193.77 366.783C193.993 365.948 194.228 365.113 194.44 364.254C197.838 367.947 200.978 369.758 204.001 369.758C207.67 369.758 211.057 367.041 214.314 361.526C214.402 361.321 214.417 361.091 214.354 360.877C214.292 360.662 214.157 360.476 213.973 360.35C207.141 355.646 198.967 358.856 195.322 360.738C195.839 358.535 196.294 356.293 196.686 354.011L196.698 353.776Z" fill="black"/>
<path d="M154.056 377.614C155.324 378.012 156.643 378.222 157.972 378.237C159.659 378.229 161.325 377.861 162.858 377.157C164.392 376.454 165.758 375.431 166.864 374.158C167.971 372.884 168.792 371.389 169.275 369.773C169.757 368.156 169.889 366.455 169.662 364.783C169.622 364.601 169.516 364.439 169.363 364.33C169.211 364.222 169.024 364.174 168.838 364.195C165.588 364.555 162.458 365.633 159.675 367.352C156.893 369.071 154.527 371.387 152.751 374.133C151.269 370.064 149.881 365.736 148.717 361.255C150.617 362.379 152.767 363.014 154.973 363.102C155.88 363.105 156.781 362.962 157.643 362.678C162.217 361.161 165.357 355.705 168.074 350.025C168.123 349.922 168.148 349.809 168.148 349.695C168.148 349.581 168.123 349.469 168.074 349.366C168.034 349.264 167.97 349.172 167.889 349.099C167.807 349.025 167.709 348.972 167.604 348.943C158.654 346.391 150.516 355.14 147.953 358.268C147.055 354.475 146.364 350.635 145.883 346.767C147.779 347.13 149.703 347.319 151.633 347.332C156.337 347.332 160.054 346.085 162.57 343.627C165.557 340.722 166.58 336.371 165.546 331.056C165.526 330.953 165.484 330.856 165.424 330.77C165.364 330.685 165.286 330.613 165.196 330.56C165.106 330.506 165.006 330.473 164.902 330.461C164.798 330.449 164.693 330.459 164.593 330.491C155.044 333.031 148.305 340.134 145.554 343.498C145.554 342.804 145.436 342.11 145.389 341.416C145.375 341.242 145.305 341.077 145.189 340.946C144.951 339.643 144.423 338.41 143.646 337.337C142.869 336.265 141.861 335.38 140.697 334.748C138.086 333.455 134.64 333.643 130.477 335.301C130.354 335.349 130.243 335.423 130.151 335.519C130.06 335.614 129.991 335.729 129.948 335.854C129.906 335.975 129.894 336.104 129.912 336.231C129.93 336.358 129.979 336.479 130.054 336.583C130.266 336.865 134.758 342.769 141.485 342.769C142.211 342.766 142.935 342.696 143.648 342.557C143.79 344.47 143.989 346.387 144.248 348.308C141.714 346.585 138.833 345.436 135.809 344.943C132.784 344.449 129.688 344.622 126.738 345.45C126.621 345.479 126.512 345.531 126.417 345.604C126.322 345.677 126.243 345.768 126.185 345.873C126.126 345.973 126.088 346.085 126.074 346.2C126.06 346.315 126.069 346.432 126.102 346.544C128.184 352.87 131.888 356.857 136.028 357.198C136.216 357.21 136.404 357.21 136.592 357.198C138.709 357.198 141.637 356.234 144.824 352.33C145.604 356.73 146.624 361.083 147.882 365.371C144.095 363.513 135.534 360.315 128.831 365.183C128.736 365.243 128.654 365.321 128.59 365.413C128.526 365.504 128.48 365.608 128.456 365.717C128.432 365.827 128.43 365.94 128.45 366.05C128.47 366.16 128.511 366.265 128.572 366.359C132.182 371.922 135.734 374.591 139.427 374.591H139.521C142.59 374.591 145.683 372.674 148.929 368.852C150.258 373.039 151.716 377.014 153.209 380.706C149.493 378.272 145.142 378.66 139.779 381.882C139.663 381.957 139.564 382.055 139.489 382.17C139.414 382.286 139.365 382.416 139.344 382.553C139.33 382.681 139.348 382.811 139.398 382.93C139.447 383.049 139.526 383.154 139.626 383.235C139.897 383.446 144.472 386.892 149.587 386.892C151.551 386.911 153.476 386.342 155.114 385.258C158.009 391.985 161.344 398.514 165.099 404.803C165.174 404.921 165.278 405.018 165.402 405.084C165.526 405.15 165.664 405.183 165.804 405.179C165.994 405.181 166.179 405.123 166.333 405.014C166.54 404.887 166.689 404.685 166.748 404.45C166.808 404.215 166.773 403.966 166.651 403.756C161.729 395.41 157.515 386.665 154.056 377.614Z" fill="#407BFF"/>
<path opacity="0.5" d="M154.056 377.614C155.324 378.012 156.643 378.222 157.972 378.237C159.659 378.229 161.325 377.861 162.858 377.157C164.392 376.454 165.758 375.431 166.864 374.158C167.971 372.884 168.792 371.389 169.275 369.773C169.757 368.156 169.889 366.455 169.662 364.783C169.622 364.601 169.516 364.439 169.363 364.33C169.211 364.222 169.024 364.174 168.838 364.195C165.588 364.555 162.458 365.633 159.675 367.352C156.893 369.071 154.527 371.387 152.751 374.133C151.269 370.064 149.881 365.736 148.717 361.255C150.617 362.379 152.767 363.014 154.973 363.102C155.88 363.105 156.781 362.962 157.643 362.678C162.217 361.161 165.357 355.705 168.074 350.025C168.123 349.922 168.148 349.809 168.148 349.695C168.148 349.581 168.123 349.469 168.074 349.366C168.034 349.264 167.97 349.172 167.889 349.099C167.807 349.025 167.709 348.972 167.604 348.943C158.654 346.391 150.516 355.14 147.953 358.268C147.055 354.475 146.364 350.635 145.883 346.767C147.779 347.13 149.703 347.319 151.633 347.332C156.337 347.332 160.054 346.085 162.57 343.627C165.557 340.722 166.58 336.371 165.546 331.056C165.526 330.953 165.484 330.856 165.424 330.77C165.364 330.685 165.286 330.613 165.196 330.56C165.106 330.506 165.006 330.473 164.902 330.461C164.798 330.449 164.693 330.459 164.593 330.491C155.044 333.031 148.305 340.134 145.554 343.498C145.554 342.804 145.436 342.11 145.389 341.416C145.375 341.242 145.305 341.077 145.189 340.946C144.951 339.643 144.423 338.41 143.646 337.337C142.869 336.265 141.861 335.38 140.697 334.748C138.086 333.455 134.64 333.643 130.477 335.301C130.354 335.349 130.243 335.423 130.151 335.519C130.06 335.614 129.991 335.729 129.948 335.854C129.906 335.975 129.894 336.104 129.912 336.231C129.93 336.358 129.979 336.479 130.054 336.583C130.266 336.865 134.758 342.769 141.485 342.769C142.211 342.766 142.935 342.696 143.648 342.557C143.79 344.47 143.989 346.387 144.248 348.308C141.714 346.585 138.833 345.436 135.809 344.943C132.784 344.449 129.688 344.622 126.738 345.45C126.621 345.479 126.512 345.531 126.417 345.604C126.322 345.677 126.243 345.768 126.185 345.873C126.126 345.973 126.088 346.085 126.074 346.2C126.06 346.315 126.069 346.432 126.102 346.544C128.184 352.87 131.888 356.857 136.028 357.198C136.216 357.21 136.404 357.21 136.592 357.198C138.709 357.198 141.637 356.234 144.824 352.33C145.604 356.73 146.624 361.083 147.882 365.371C144.095 363.513 135.534 360.315 128.831 365.183C128.736 365.243 128.654 365.321 128.59 365.413C128.526 365.504 128.48 365.608 128.456 365.717C128.432 365.827 128.43 365.94 128.45 366.05C128.47 366.16 128.511 366.265 128.572 366.359C132.182 371.922 135.734 374.591 139.427 374.591H139.521C142.59 374.591 145.683 372.674 148.929 368.852C150.258 373.039 151.716 377.014 153.209 380.706C149.493 378.272 145.142 378.66 139.779 381.882C139.663 381.957 139.564 382.055 139.489 382.17C139.414 382.286 139.365 382.416 139.344 382.553C139.33 382.681 139.348 382.811 139.398 382.93C139.447 383.049 139.526 383.154 139.626 383.235C139.897 383.446 144.472 386.892 149.587 386.892C151.551 386.911 153.476 386.342 155.114 385.258C158.009 391.985 161.344 398.514 165.099 404.803C165.174 404.921 165.278 405.018 165.402 405.084C165.526 405.15 165.664 405.183 165.804 405.179C165.994 405.181 166.179 405.123 166.333 405.014C166.54 404.887 166.689 404.685 166.748 404.45C166.808 404.215 166.773 403.966 166.651 403.756C161.729 395.41 157.515 386.665 154.056 377.614Z" fill="white"/>
<path d="M186.396 424.818H158.384L156.267 395.853H188.513L186.396 424.818Z" fill="#263238"/>
<path d="M190.594 393.901H154.174V398.805H190.594V393.901Z" fill="#263238"/>
<path d="M174.048 253.51H109.38C104.84 253.51 101.16 257.191 101.16 261.731V416.598C101.16 421.138 104.84 424.818 109.38 424.818H174.048C178.588 424.818 182.268 421.138 182.268 416.598V261.731C182.268 257.191 178.588 253.51 174.048 253.51Z" fill="#407BFF"/>
<path opacity="0.6" d="M174.048 253.51H109.38C104.84 253.51 101.16 257.191 101.16 261.731V416.598C101.16 421.138 104.84 424.818 109.38 424.818H174.048C178.588 424.818 182.268 421.138 182.268 416.598V261.731C182.268 257.191 178.588 253.51 174.048 253.51Z" fill="black"/>
<path d="M170.108 253.51H105.44C100.9 253.51 97.2199 257.191 97.2199 261.731V416.598C97.2199 421.138 100.9 424.818 105.44 424.818H170.108C174.648 424.818 178.329 421.138 178.329 416.598V261.731C178.329 257.191 174.648 253.51 170.108 253.51Z" fill="#407BFF"/>
<path opacity="0.3" d="M170.108 253.51H105.44C100.9 253.51 97.2199 257.191 97.2199 261.731V416.598C97.2199 421.138 100.9 424.818 105.44 424.818H170.108C174.648 424.818 178.329 421.138 178.329 416.598V261.731C178.329 257.191 174.648 253.51 170.108 253.51Z" fill="black"/>
<path d="M178.329 262.942H97.2199V410.154H178.329V262.942Z" fill="#FAFAFA"/>
<path opacity="0.18" d="M178.376 262.636H97.267V409.848H178.376V262.636Z" fill="#407BFF"/>
<path opacity="0.4" d="M126.655 262.954L100.348 410.165H126.396L152.715 262.954H126.655Z" fill="white"/>
<path opacity="0.4" d="M159.066 262.954L132.759 410.165H145.789L172.096 262.954H159.066Z" fill="white"/>
<path d="M141.437 416.974C141.437 417.698 141.223 418.405 140.821 419.006C140.419 419.608 139.848 420.076 139.18 420.353C138.511 420.63 137.776 420.703 137.067 420.561C136.357 420.42 135.705 420.072 135.194 419.56C134.683 419.049 134.334 418.397 134.193 417.688C134.052 416.978 134.124 416.243 134.401 415.575C134.678 414.906 135.147 414.335 135.748 413.933C136.35 413.531 137.057 413.317 137.78 413.317C138.75 413.317 139.68 413.702 140.366 414.388C141.052 415.074 141.437 416.004 141.437 416.974Z" fill="#407BFF"/>
<path opacity="0.5" d="M141.437 416.974C141.437 417.698 141.223 418.405 140.821 419.006C140.419 419.608 139.848 420.076 139.18 420.353C138.511 420.63 137.776 420.703 137.067 420.561C136.357 420.42 135.705 420.072 135.194 419.56C134.683 419.049 134.334 418.397 134.193 417.688C134.052 416.978 134.124 416.243 134.401 415.575C134.678 414.906 135.147 414.335 135.748 413.933C136.35 413.531 137.057 413.317 137.78 413.317C138.75 413.317 139.68 413.702 140.366 414.388C141.052 415.074 141.437 416.004 141.437 416.974Z" fill="black"/>
<path d="M147.365 259.143C148.079 259.143 148.658 258.564 148.658 257.85C148.658 257.135 148.079 256.556 147.365 256.556C146.65 256.556 146.071 257.135 146.071 257.85C146.071 258.564 146.65 259.143 147.365 259.143Z" fill="#407BFF"/>
<path d="M142.084 259.143H128.184C127.841 259.143 127.512 259.007 127.269 258.764C127.027 258.522 126.89 258.193 126.89 257.85C126.893 257.508 127.031 257.18 127.273 256.938C127.515 256.697 127.842 256.559 128.184 256.556H142.073C142.415 256.559 142.742 256.697 142.984 256.938C143.226 257.18 143.363 257.508 143.366 257.85C143.366 258.191 143.231 258.518 142.991 258.76C142.751 259.003 142.425 259.14 142.084 259.143Z" fill="#407BFF"/>
<path opacity="0.5" d="M147.365 259.143C148.079 259.143 148.658 258.564 148.658 257.85C148.658 257.135 148.079 256.556 147.365 256.556C146.65 256.556 146.071 257.135 146.071 257.85C146.071 258.564 146.65 259.143 147.365 259.143Z" fill="black"/>
<path opacity="0.5" d="M142.084 259.143H128.184C127.841 259.143 127.512 259.007 127.269 258.764C127.027 258.522 126.89 258.193 126.89 257.85C126.893 257.508 127.031 257.18 127.273 256.938C127.515 256.697 127.842 256.559 128.184 256.556H142.073C142.415 256.559 142.742 256.697 142.984 256.938C143.226 257.18 143.363 257.508 143.366 257.85C143.366 258.191 143.231 258.518 142.991 258.76C142.751 259.003 142.425 259.14 142.084 259.143Z" fill="black"/>
</svg>
